<!DOCTYPE svg PUBLIC "-//W3C//DTD SVG 1.1//EN" "http://www.w3.org/Graphics/SVG/1.1/DTD/svg11.dtd">
<!-- Uploaded to: SVG Repo, www.svgrepo.com, Transformed by: SVG Repo Mixer Tools -->
<svg fill="#ffffff" height="800px" width="800px" version="1.1" id="Layer_1" xmlns="http://www.w3.org/2000/svg" xmlns:xlink="http://www.w3.org/1999/xlink" viewBox="0 0 512 512" xml:space="preserve">
<g id="SVGRepo_bgCarrier" stroke-width="0"/>
<g id="SVGRepo_tracerCarrier" stroke-linecap="round" stroke-linejoin="round"/>
<g id="SVGRepo_iconCarrier"> <g> <g> <g> <path d="M0.001,512h264V256h-264V512z M16,272h232.001v224H16V272z"/> <polygon points="80.001,167.996 80.001,248 96,248 96,184.004 327.869,184.132 327.995,416 272,416 272,432 344.004,432 343.86,168.14 "/> <polygon points="168.001,160 184,160 184,96 408.001,96 408.001,328 352.001,328 352.001,344 424,344 424,80 168.001,80 "/> <polygon points="248.001,0 248.001,72 264.001,72 264.001,16.001 496.001,16.001 496.001,248 432,248 432,264 511.999,264 511.999,0 "/> </g> </g> </g> </g>
</svg>