<!DOCTYPE svg PUBLIC "-//W3C//DTD SVG 1.1//EN" "http://www.w3.org/Graphics/SVG/1.1/DTD/svg11.dtd">
<!-- Uploaded to: SVG Repo, www.svgrepo.com, Transformed by: SVG Repo Mixer Tools -->
<svg width="800px" height="800px" viewBox="0 0 100 100" xmlns="http://www.w3.org/2000/svg" xmlns:xlink="http://www.w3.org/1999/xlink" aria-hidden="true" role="img" class="iconify iconify--gis" preserveAspectRatio="xMidYMid meet" fill="#ffffff">
<g id="SVGRepo_bgCarrier" stroke-width="0"/>
<g id="SVGRepo_tracerCarrier" stroke-linecap="round" stroke-linejoin="round"/>
<g id="SVGRepo_iconCarrier">
<path d="M1.383 48.166a4.725 2.593 0 0 0 0 3.668L46.66 76.68a4.725 2.593 0 0 0 6.683 0l45.275-24.847a4.725 2.593 0 0 0 0-3.666L53.342 23.32a4.725 2.593 0 0 0-6.683-.001zM11.407 50l38.594-21.18L88.595 50L50 71.18z" fill="#ffffff"/>
<path d="M42 35.674V58.59h6V35.674h-6zm20 5.59V58.59h6V41.264h-6zM32 42.51v16.08h6V42.51h-6zm20 4.66v11.42h6V47.17h-6zM32 60.59v4h36v-4H32z" fill="#ffffff"/>
</g>
</svg>