<?xml version="1.0" encoding="utf-8"?>
<!-- Generator: Adobe Illustrator 27.3.1, SVG Export Plug-In . SVG Version: 6.00 Build 0)  -->
<svg version="1.1" id="Layer_1" xmlns="http://www.w3.org/2000/svg" xmlns:xlink="http://www.w3.org/1999/xlink" x="0px" y="0px"
	 viewBox="0 0 576 432" style="enable-background:new 0 0 576 432;" xml:space="preserve">
<style type="text/css">
	.Drop_x0020_Shadow{fill:none;}
	.Round_x0020_Corners_x0020_2_x0020_pt{fill:#FFFFFF;stroke:#231F20;stroke-miterlimit:10;}
	.Live_x0020_Reflect_x0020_X{fill:none;}
	.Bevel_x0020_Soft{fill:url(#SVGID_1_);}
	.Dusk{fill:#FFFFFF;}
	.Foliage_GS{fill:#FFDD00;}
	.Pompadour_GS{fill-rule:evenodd;clip-rule:evenodd;fill:#44ACE1;}
	.Embossed_x0020_Blind{fill:none;stroke:#E0CEC3;stroke-width:2;}
	.st0{opacity:0.6;fill:#FFFFFF;}
	.st1{fill:#744CA2;}
	.st2{fill:#81A0EF;}
	.st3{fill:#FFFFFF;}
	.st4{opacity:0.7;fill:url(#SVGID_00000142870529181448668410000006454963358182910613_);}
	.st5{opacity:0.7;fill:url(#SVGID_00000072984616625517135440000017156620123365265316_);}
	.st6{enable-background:new    ;}
	.st7{fill:url(#SVGID_00000007422160604140429010000017253763384505217719_);}
	.st8{fill:url(#SVGID_00000080199546318312052820000017725321185590617739_);}
	.st9{fill:url(#SVGID_00000041280447209546507560000018073223668664173486_);}
	.st10{fill:url(#SVGID_00000131361980447382839260000002740874465982656401_);}
	.st11{fill:url(#SVGID_00000133507755817763477180000002658557344774016919_);}
	.st12{opacity:0.3;fill:url(#SVGID_00000144328332053383133030000010880287385458166684_);}
	.st13{fill:url(#SVGID_00000027603751665238987510000009286063889082908061_);}
	.st14{fill:url(#SVGID_00000011008855429188301030000008929057444034185613_);}
	.st15{fill:none;stroke:#E0DDDC;stroke-width:6;}
	.st16{fill:none;stroke:#FCFAF9;stroke-width:2;}
	.st17{fill:#FFFFFF;stroke:#FFFFFF;}
	.st18{fill:#15277E;}
	.st19{fill:#DD4814;}
	.st20{fill:#1B3C70;}
</style>
<linearGradient id="SVGID_1_" gradientUnits="userSpaceOnUse" x1="-596" y1="0" x2="-595.2929" y2="0.7071">
	<stop  offset="0" style="stop-color:#DEDFE3"/>
	<stop  offset="0.1783" style="stop-color:#DADBDF"/>
	<stop  offset="0.3611" style="stop-color:#CECFD3"/>
	<stop  offset="0.546" style="stop-color:#B9BCBF"/>
	<stop  offset="0.7324" style="stop-color:#9CA0A2"/>
	<stop  offset="0.9181" style="stop-color:#787D7E"/>
	<stop  offset="1" style="stop-color:#656B6C"/>
</linearGradient>
<g>
	<path class="st0" d="M12.2,75.9l10,285.8c0.4,11.3,9.7,20.3,21,20.3h492.4c11.4,0,20.8-9.1,21.1-20.6l6.9-289.2
		c0.3-11.9-9.3-21.6-21.2-21.6L33.1,54.1C21.2,54.2,11.7,64.1,12.2,75.9z"/>
	<g>
		<path class="st1" d="M535.6,382.9H43.2c-11.8,0-21.4-9.3-21.8-21.1L11.4,76c-0.2-5.9,1.9-11.6,6.1-15.9c4.1-4.3,9.7-6.7,15.6-6.7
			L542.4,50c5.9,0,11.5,2.3,15.7,6.5c4.2,4.3,6.4,9.9,6.3,15.8l-6.9,289.2C557.2,373.5,547.6,382.9,535.6,382.9z M542.5,51.6
			c0,0-0.1,0-0.1,0L33.1,54.9c-5.5,0-10.7,2.3-14.5,6.2c-3.8,4-5.8,9.2-5.6,14.8l10,285.8c0.4,11,9.3,19.6,20.3,19.6h492.4
			c10.9,0,20-8.9,20.3-19.8l6.9-289.2c0.1-5.5-1.9-10.8-5.8-14.7C553.1,53.7,548,51.6,542.5,51.6z"/>
	</g>
	<path class="st2" d="M12.9,90.5H563l0.9-15.1c0.8-13.3-9.9-24.5-23.2-24.4L31.5,55c-10.6,0.1-19.1,8.8-18.9,19.5L12.9,90.5z"/>
	<g>
		<polygon class="st3" points="522.6,68 526.1,62.7 545,79.3 542.1,83.4 		"/>
		<polygon class="st3" points="545.5,68 542,62.7 523.1,79.3 526,83.4 		"/>
	</g>
	
		<linearGradient id="SVGID_00000049923011953638947240000017635842651485337218_" gradientUnits="userSpaceOnUse" x1="475.3774" y1="83.1643" x2="475.3774" y2="62.3096">
		<stop  offset="0" style="stop-color:#FFFFFF"/>
		<stop  offset="1" style="stop-color:#FFFFFF"/>
	</linearGradient>
	<path style="opacity:0.7;fill:url(#SVGID_00000049923011953638947240000017635842651485337218_);" d="M485.8,72.7
		c0,5.8-4.7,10.4-10.4,10.4c-5.8,0-10.4-4.7-10.4-10.4s4.7-10.4,10.4-10.4C481.1,62.3,485.8,67,485.8,72.7z"/>
	
		<linearGradient id="SVGID_00000021798665707326357630000006221542740280057477_" gradientUnits="userSpaceOnUse" x1="506.0045" y1="83.1643" x2="506.0045" y2="62.3096">
		<stop  offset="0" style="stop-color:#1900AF"/>
		<stop  offset="1" style="stop-color:#1519FF"/>
	</linearGradient>
	<circle style="opacity:0.7;fill:url(#SVGID_00000021798665707326357630000006221542740280057477_);" cx="506" cy="72.7" r="10.4"/>
</g>
<g>
	<g id="U">
		<circle class="st19" cx="66.1" cy="223.8" r="12"/>
		<path class="st19" d="M98.4,267.3c-10.5-7-18.4-17.8-21.6-30.4c3.8-3.1,6.2-7.8,6.2-13.1s-2.4-10-6.2-13.1
			c3.3-12.6,11.1-23.4,21.6-30.4l8.8,14.8c-9,6.4-15,16.9-15,28.8c0,11.9,5.9,22.4,15,28.8L98.4,267.3z"/>
	</g>
	<g transform="rotate(120)">
		<g id="U_00000007424215580817839660000013625853205647747200_">
			<circle class="st19" cx="158.1" cy="170.6" r="12"/>
			<path class="st19" d="M104.3,176.9c11.4-5.6,24.6-7,37.2-3.5c0.8,4.8,3.7,9.3,8.2,12c4.6,2.6,9.9,2.9,14.5,1.2
				c9.3,9.1,14.7,21.3,15.5,33.9l-17.2,0.3c-1-11-7.1-21.4-17.4-27.3s-22.4-6.1-32.4-1.4L104.3,176.9z"/>
		</g>
	</g>
	<g transform="rotate(240)">
		<g id="U_00000103253443061137782350000015666169274262316197_">
			<circle class="st19" cx="158.1" cy="276.9" r="12"/>
			<path class="st19" d="M179.7,227.1c-0.8,12.6-6.2,24.8-15.5,33.9c-4.6-1.7-9.9-1.5-14.5,1.2c-4.6,2.6-7.5,7.1-8.2,12
				c-12.5,3.5-25.8,2.1-37.2-3.5l8.4-15c10,4.7,22.1,4.5,32.4-1.4s16.5-16.3,17.4-27.3L179.7,227.1z"/>
		</g>
	</g>
</g>
<g>
	<g>
		
			<image style="overflow:visible;" width="920" height="545" xlink:href="27E484C5.png"  transform="matrix(0.24 0 0 0.24 301.1266 141.3499)">
		</image>
	</g>
</g>
<path class="st20" d="M272.6,222.3l-4.7-3.7v0l-5.4-3.9h0l-1.7-1.3l-0.7-0.6h0L235.5,194c-2.7-2.1-7.1-2.1-9.9,0v0
	c-2.9,2.1-2.7,5.5,0,7.6c0,0,26.3,20.1,26.5,20.4c1.2,2.3,0,3.9-3.8,6.6c0,0-9.7,7.4-10.3,7.9l-12.5,9.6c-2.7,2.1-2.9,5.5,0,7.6v0
	c2.8,2.1,7.1,2,9.9,0l24.6-18.8h0l0.7-0.6l1.7-1.3h0l5.4-3.9v0l4.7-3.7c0.4-0.3,0.6-0.7,0.6-1.1
	C273.4,223.6,273.3,222.8,272.6,222.3z"/>
</svg>
