<?xml version="1.0" encoding="utf-8"?>
<!-- Generator: Adobe Illustrator 27.3.1, SVG Export Plug-In . SVG Version: 6.00 Build 0)  -->
<svg version="1.1" id="Layer_1" xmlns="http://www.w3.org/2000/svg" xmlns:xlink="http://www.w3.org/1999/xlink" x="0px" y="0px"
	 viewBox="0 0 576 432" style="enable-background:new 0 0 576 432;" xml:space="preserve">
<style type="text/css">
	.Drop_x0020_Shadow{fill:none;}
	.Round_x0020_Corners_x0020_2_x0020_pt{fill:#FFFFFF;stroke:#231F20;stroke-miterlimit:10;}
	.Live_x0020_Reflect_x0020_X{fill:none;}
	.Bevel_x0020_Soft{fill:url(#SVGID_1_);}
	.Dusk{fill:#FFFFFF;}
	.Foliage_GS{fill:#FFDD00;}
	.Pompadour_GS{fill-rule:evenodd;clip-rule:evenodd;fill:#44ACE1;}
	.Embossed_x0020_Blind{fill:none;stroke:#E0CEC3;stroke-width:2;}
	.st0{opacity:0.6;fill:#FFFFFF;}
	.st1{fill:#744CA2;}
	.st2{fill:#81A0EF;}
	.st3{fill:#FFFFFF;}
	.st4{opacity:0.7;fill:url(#SVGID_00000130613338374467714020000006943920302584107709_);}
	.st5{opacity:0.7;fill:url(#SVGID_00000148620006979910568860000003556090070875558275_);}
	.st6{enable-background:new    ;}
	.st7{fill:url(#SVGID_00000160898807049192027670000010599820767365986957_);}
	.st8{fill:url(#SVGID_00000180366922013377774110000005984012372280181437_);}
	.st9{fill:url(#SVGID_00000134218175618728657090000015690176789125451648_);}
	.st10{fill:url(#SVGID_00000162352553944847485520000011813261017336703110_);}
	.st11{fill:url(#SVGID_00000031201025469279468210000002601714725516836231_);}
	.st12{opacity:0.3;fill:url(#SVGID_00000138557063170014299030000010891655502854866074_);}
	.st13{fill:url(#SVGID_00000060029465268677853470000010040554809431599287_);}
	.st14{fill:url(#SVGID_00000064350563695486551550000007465921746929771709_);}
	.st15{fill:none;stroke:#E0DDDC;stroke-width:6;}
	.st16{fill:none;stroke:#FCFAF9;stroke-width:2;}
	.st17{fill:#FFFFFF;stroke:#FFFFFF;}
	.st18{fill:#15277E;}
	.st19{fill:#DD4814;}
	.st20{fill:#1B3C70;}
</style>
<linearGradient id="SVGID_1_" gradientUnits="userSpaceOnUse" x1="0" y1="0" x2="0.7071" y2="0.7071">
	<stop  offset="0" style="stop-color:#DEDFE3"/>
	<stop  offset="0.1783" style="stop-color:#DADBDF"/>
	<stop  offset="0.3611" style="stop-color:#CECFD3"/>
	<stop  offset="0.546" style="stop-color:#B9BCBF"/>
	<stop  offset="0.7324" style="stop-color:#9CA0A2"/>
	<stop  offset="0.9181" style="stop-color:#787D7E"/>
	<stop  offset="1" style="stop-color:#656B6C"/>
</linearGradient>
<g>
	
		<radialGradient id="SVGID_00000018950851295388054390000004075044270125318535_" cx="958.7714" cy="154.8206" r="29.4121" gradientTransform="matrix(3.1974 0 0 0.2127 -2611.3103 229.186)" gradientUnits="userSpaceOnUse">
		<stop  offset="0" style="stop-color:#000000"/>
		<stop  offset="1.237853e-03" style="stop-color:#000000"/>
		<stop  offset="0.5328" style="stop-color:#333333"/>
		<stop  offset="0.5622" style="stop-color:#454545"/>
		<stop  offset="0.6799" style="stop-color:#868686"/>
		<stop  offset="0.7868" style="stop-color:#BABABA"/>
		<stop  offset="0.8791" style="stop-color:#E0E0E0"/>
		<stop  offset="0.9533" style="stop-color:#F7F7F7"/>
		<stop  offset="1" style="stop-color:#FFFFFF"/>
	</radialGradient>
	
		<ellipse style="opacity:0.3;fill:url(#SVGID_00000018950851295388054390000004075044270125318535_);" cx="454.3" cy="262.1" rx="94" ry="6.3"/>
	<g>
		<g>
			
				<linearGradient id="SVGID_00000119118404934656687190000017933569469726541974_" gradientUnits="userSpaceOnUse" x1="376.2396" y1="182.1843" x2="548.1699" y2="268.7186">
				<stop  offset="0" style="stop-color:#FEFEFE"/>
				<stop  offset="1" style="stop-color:#E3E3E3"/>
			</linearGradient>
			<path style="fill:url(#SVGID_00000119118404934656687190000017933569469726541974_);" d="M387.1,262.4c-7.7,0-15-3-20.4-8.5
				s-8.5-12.7-8.5-20.4s3-15,8.5-20.4c5.4-5.4,12.5-8.4,20.2-8.5c-0.1-1-0.2-1.9-0.2-2.9c0-5.6,2.2-10.9,6.2-14.9
				c4-4,9.3-6.2,14.9-6.2c2.9,0,5.8,0.6,8.5,1.8c2-8.7,7-16.5,13.9-22.2c3.5-2.9,7.5-5.1,11.8-6.7c4.4-1.6,9.1-2.4,13.8-2.4
				c7.2,0,14.3,1.9,20.5,5.5c5.9,3.4,10.8,8.3,14.3,14.1c2.8-1.5,6-2.3,9.2-2.3c10.9,0,19.8,8.9,19.8,19.8c0,1.1-0.1,2.2-0.3,3.3
				c8,1.5,15.3,5.8,20.6,12c2.7,3.2,4.8,6.7,6.2,10.6c1.5,4,2.3,8.2,2.3,12.5c0,4.8-0.9,9.5-2.8,13.9c-1.8,4.3-4.4,8.1-7.6,11.3
				c-3.3,3.3-7.1,5.9-11.3,7.6c-4.4,1.9-9.1,2.8-13.9,2.8H387.1z"/>
			
				<linearGradient id="SVGID_00000056403369785033948220000003342472193614109336_" gradientUnits="userSpaceOnUse" x1="391.1292" y1="180.7408" x2="525.2244" y2="273.4886">
				<stop  offset="0" style="stop-color:#F5F5F5"/>
				<stop  offset="1.318544e-02" style="stop-color:#F5F5F5"/>
				<stop  offset="1" style="stop-color:#F0F0F0"/>
			</linearGradient>
			<path style="fill:url(#SVGID_00000056403369785033948220000003342472193614109336_);" d="M518.7,192.5c0.2-1.2,0.4-2.4,0.4-3.7
				c0-10.7-8.7-19.3-19.3-19.3c-3.4,0-6.6,0.9-9.4,2.4c-7-11.9-19.9-19.8-34.6-19.8c-19.2,0-35.3,13.5-39.3,31.5
				c-2.7-1.3-5.6-2-8.8-2c-11.4,0-20.6,9.2-20.6,20.6c0,1.1,0.1,2.3,0.3,3.4c-0.1,0-0.2,0-0.3,0c-15.7,0-28.4,12.7-28.4,28.4
				s12.7,28.4,28.4,28.4h125.5c19.4,0,35.2-15.8,35.2-35.2C547.8,209.8,535.2,195.4,518.7,192.5z"/>
		</g>
		<g>
			
				<image style="overflow:visible;opacity:0.75;" width="857" height="527" xlink:href="6DD6307A.png"  transform="matrix(0.24 0 0 0.24 351.42 144.54)">
			</image>
			<g>
				<path class="st15" d="M387.1,262.4c-7.7,0-15-3-20.4-8.5s-8.5-12.7-8.5-20.4s3-15,8.5-20.4c5.4-5.4,12.5-8.4,20.2-8.5
					c-0.1-1-0.2-1.9-0.2-2.9c0-5.6,2.2-10.9,6.2-14.9c4-4,9.3-6.2,14.9-6.2c2.9,0,5.8,0.6,8.5,1.8c2-8.7,7-16.5,13.9-22.2
					c3.5-2.9,7.5-5.1,11.8-6.7c4.4-1.6,9.1-2.4,13.8-2.4c7.2,0,14.3,1.9,20.5,5.5c5.9,3.4,10.8,8.3,14.3,14.1c2.8-1.5,6-2.3,9.2-2.3
					c10.9,0,19.8,8.9,19.8,19.8c0,1.1-0.1,2.2-0.3,3.3c8,1.5,15.3,5.8,20.6,12c2.7,3.2,4.8,6.7,6.2,10.6c1.5,4,2.3,8.2,2.3,12.5
					c0,4.8-0.9,9.5-2.8,13.9c-1.8,4.3-4.4,8.1-7.6,11.3c-3.3,3.3-7.1,5.9-11.3,7.6c-4.4,1.9-9.1,2.8-13.9,2.8H387.1z"/>
				<path class="st15" d="M518.7,192.5c0.2-1.2,0.4-2.4,0.4-3.7c0-10.7-8.7-19.3-19.3-19.3c-3.4,0-6.6,0.9-9.4,2.4
					c-7-11.9-19.9-19.8-34.6-19.8c-19.2,0-35.3,13.5-39.3,31.5c-2.7-1.3-5.6-2-8.8-2c-11.4,0-20.6,9.2-20.6,20.6
					c0,1.1,0.1,2.3,0.3,3.4c-0.1,0-0.2,0-0.3,0c-15.7,0-28.4,12.7-28.4,28.4s12.7,28.4,28.4,28.4h125.5c19.4,0,35.2-15.8,35.2-35.2
					C547.8,209.8,535.2,195.4,518.7,192.5z"/>
			</g>
		</g>
		<g>
			<path class="st16" d="M386.1,261.4c-7.7,0-15-3-20.4-8.5s-8.5-12.7-8.5-20.4s3-15,8.5-20.4c5.4-5.4,12.5-8.4,20.2-8.5
				c-0.1-1-0.2-1.9-0.2-2.9c0-5.6,2.2-10.9,6.2-14.9c4-4,9.3-6.2,14.9-6.2c2.9,0,5.8,0.6,8.5,1.8c2-8.7,7-16.5,13.9-22.2
				c3.5-2.9,7.5-5.1,11.8-6.7c4.4-1.6,9.1-2.4,13.8-2.4c7.2,0,14.3,1.9,20.5,5.5c5.9,3.4,10.8,8.3,14.3,14.1c2.8-1.5,6-2.3,9.2-2.3
				c10.9,0,19.8,8.9,19.8,19.8c0,1.1-0.1,2.2-0.3,3.3c8,1.5,15.3,5.8,20.6,12c2.7,3.2,4.8,6.7,6.2,10.6c1.5,4,2.3,8.2,2.3,12.5
				c0,4.8-0.9,9.5-2.8,13.9c-1.8,4.3-4.4,8.1-7.6,11.3c-3.3,3.3-7.1,5.9-11.3,7.6c-4.4,1.9-9.1,2.8-13.9,2.8H386.1z"/>
			<path class="st16" d="M517.7,191.5c0.2-1.2,0.4-2.4,0.4-3.7c0-10.7-8.7-19.3-19.3-19.3c-3.4,0-6.6,0.9-9.4,2.4
				c-7-11.9-19.9-19.8-34.6-19.8c-19.2,0-35.3,13.5-39.3,31.5c-2.7-1.3-5.6-2-8.8-2c-11.4,0-20.6,9.2-20.6,20.6
				c0,1.1,0.1,2.3,0.3,3.4c-0.1,0-0.2,0-0.3,0c-15.7,0-28.4,12.7-28.4,28.4s12.7,28.4,28.4,28.4h125.5c19.4,0,35.2-15.8,35.2-35.2
				C546.8,208.8,534.2,194.4,517.7,191.5z"/>
		</g>
	</g>
	<g>
		
			<image style="overflow:visible;opacity:0.75;" width="872" height="571" xlink:href="6DD6307E.png"  transform="matrix(0.24 0 0 0.24 348.36 139.32)">
		</image>
		<g>
			<g>
				<path class="st17" d="M384.9,264.7c-7.7,0-15-3.2-20.4-9c-5.5-5.8-8.5-13.5-8.5-21.6s3-15.8,8.5-21.6c5.4-5.7,12.5-8.9,20.2-9
					c-0.1-1-0.2-2-0.2-3c0-5.9,2.2-11.5,6.2-15.7c4-4.2,9.3-6.5,14.9-6.5c2.9,0,5.8,0.6,8.5,1.9c2-9.2,7-17.5,13.9-23.5
					c3.5-3.1,7.5-5.4,11.8-7.1c4.4-1.7,9.1-2.6,13.8-2.6c7.2,0,14.3,2,20.5,5.8c5.9,3.6,10.8,8.8,14.3,14.9c2.8-1.6,6-2.4,9.2-2.4
					c10.9,0,19.8,9.4,19.8,21c0,1.2-0.1,2.4-0.3,3.5c8,1.6,15.3,6.1,20.6,12.7c2.7,3.3,4.8,7.1,6.2,11.2c1.5,4.2,2.3,8.7,2.3,13.2
					c0,5.1-0.9,10-2.8,14.7c-1.8,4.5-4.4,8.5-7.6,12c-3.3,3.5-7.1,6.2-11.3,8.1c-4.4,2-9.1,3-13.9,3H384.9z"/>
				<path class="st17" d="M516.5,190.7c0.2-1.3,0.4-2.6,0.4-3.9c0-11.3-8.7-20.5-19.3-20.5c-3.4,0-6.6,0.9-9.4,2.6
					c-7-12.5-19.9-21-34.6-21c-19.2,0-35.3,14.3-39.3,33.3c-2.7-1.3-5.6-2.1-8.8-2.1c-11.4,0-20.6,9.7-20.6,21.8
					c0,1.2,0.1,2.4,0.3,3.6c-0.1,0-0.2,0-0.3,0c-15.7,0-28.4,13.5-28.4,30.1s12.7,30.1,28.4,30.1h125.5c19.4,0,35.2-16.7,35.2-37.3
					C545.7,209.1,533.1,193.8,516.5,190.7z"/>
			</g>
		</g>
	</g>
</g>
<g>
	<g>
		
			<image style="overflow:visible;" width="697" height="771" xlink:href="6DD63079.png"  transform="matrix(0.24 0 0 0.24 57.646 127.4435)">
		</image>
	</g>
</g>
<g>
	<g>
		
			<image style="overflow:visible;" width="512" height="71" xlink:href="6DD6307B.png"  transform="matrix(0.1805 0 0 0.1805 93.3903 148.2838)">
		</image>
	</g>
</g>
<circle class="st2" cx="293.8" cy="230.2" r="29.5"/>
<g>
	<path class="st18" d="M294.7,230c0,6.8-4.1,10.4-9.2,10.4c-5.2,0-8.9-4.1-8.9-10c0-6.3,3.9-10.4,9.2-10.4
		C291.3,220,294.7,224.1,294.7,230z M279.4,230.3c0,4.2,2.3,8,6.3,8c4.1,0,6.3-3.7,6.3-8.2c0-3.9-2.1-8-6.3-8
		C281.5,222,279.4,226,279.4,230.3z"/>
	<path class="st18" d="M298.1,220.5c1.3-0.3,3.1-0.4,4.9-0.4c2.7,0,4.5,0.5,5.7,1.6c1,0.9,1.6,2.2,1.6,3.8c0,2.6-1.6,4.3-3.7,5.1
		v0.1c1.5,0.5,2.4,1.9,2.9,4c0.6,2.8,1.1,4.7,1.5,5.4h-2.6c-0.3-0.6-0.8-2.3-1.3-4.7c-0.6-2.7-1.6-3.8-4-3.8h-2.4v8.6h-2.6V220.5z
		 M300.6,229.6h2.6c2.7,0,4.5-1.5,4.5-3.8c0-2.6-1.9-3.7-4.6-3.7c-1.2,0-2.1,0.1-2.5,0.2V229.6z"/>
</g>
</svg>
