<svg xmlns="http://www.w3.org/2000/svg" fill="none" viewBox="0 0 55 20" height="20" width="55">
<path fill="#CEB3FF" d="M4.56124 6.05328C4.45703 6.05328 4.43098 6.00118 4.48308 5.92302L5.03018 5.21962C5.08228 5.14146 5.21254 5.08936 5.31675 5.08936H14.6174C14.7216 5.08936 14.7476 5.16751 14.6955 5.24567L14.2526 5.92302C14.2005 6.00118 14.0703 6.07934 13.9921 6.07934L4.56124 6.05328Z"></path>
<path fill="#CEB3FF" d="M0.627646 8.45026C0.523438 8.45026 0.497385 8.39815 0.54949 8.32L1.09658 7.61659C1.14869 7.53843 1.27895 7.48633 1.38316 7.48633H13.2629C13.3671 7.48633 13.4193 7.56448 13.3932 7.64264L13.1848 8.26789C13.1587 8.3721 13.0545 8.42421 12.9503 8.42421L0.627646 8.45026Z"></path>
<path fill="#CEB3FF" d="M6.93233 10.8467C6.82812 10.8467 6.80207 10.7686 6.85418 10.6904L7.21891 10.0391C7.27101 9.96097 7.37522 9.88281 7.47943 9.88281H12.6899C12.7941 9.88281 12.8462 9.96097 12.8462 10.0652L12.7941 10.6904C12.7941 10.7946 12.6899 10.8728 12.6117 10.8728L6.93233 10.8467Z"></path>
<path fill="white" d="M33.9752 5.58411C32.3339 6.00094 31.2137 6.31356 29.5985 6.7304C29.2077 6.83461 29.1816 6.86066 28.8429 6.46988C28.4522 6.02699 28.1656 5.74042 27.6185 5.4799C25.9772 4.67228 24.388 4.90675 22.903 5.87068C21.1315 7.01697 20.2197 8.71036 20.2457 10.8206C20.2718 12.9048 21.7047 14.6242 23.7628 14.9108C25.5343 15.1452 27.0193 14.52 28.1916 13.1913C28.4261 12.9048 28.6345 12.5921 28.895 12.2274C27.9572 12.2274 26.7848 12.2274 23.867 12.2274C23.3199 12.2274 23.1896 11.8887 23.372 11.4458C23.7107 10.6382 24.3359 9.28351 24.7006 8.60615C24.7788 8.44984 24.9612 8.18932 25.352 8.18932C26.6806 8.18932 31.5784 8.18932 34.8349 8.18932C34.7828 8.89273 34.7828 9.59614 34.6786 10.2995C34.392 12.1753 33.6886 13.8947 32.5423 15.4058C30.6666 17.8807 28.2177 19.4178 25.1175 19.8346C22.5644 20.1733 20.1936 19.6783 18.1095 18.1152C16.1816 16.6563 15.0874 14.7284 14.8008 12.3316C14.4622 9.49193 15.2958 6.93882 17.0153 4.69833C18.865 2.27548 21.3139 0.738403 24.3099 0.191308C26.7588 -0.251579 29.1035 0.0349953 31.2137 1.46786C32.5945 2.37969 33.5844 3.63019 34.2357 5.14122C34.3921 5.37569 34.2878 5.50595 33.9752 5.58411Z"></path>
<path fill="white" d="M42.5984 19.9914C40.2277 19.9393 38.0654 19.2619 36.2417 17.6988C34.7046 16.3702 33.7407 14.6768 33.4281 12.6707C32.9591 9.72686 33.7668 7.12164 35.5383 4.803C37.4401 2.30199 39.7327 0.999385 42.8329 0.45229C45.4902 -0.0166486 47.9912 0.243872 50.2578 1.78095C52.3159 3.18777 53.5924 5.08957 53.9311 7.59058C54.374 11.1076 53.358 13.9734 50.9351 16.4223C49.2157 18.1678 47.1055 19.2619 44.6826 19.7569C43.9792 19.8872 43.2758 19.9133 42.5984 19.9914ZM48.7988 9.46633C48.7728 9.12766 48.7728 8.86714 48.7207 8.60661C48.2518 6.02745 45.881 4.56853 43.4061 5.14168C40.9832 5.68877 39.4201 7.22585 38.8469 9.67475C38.378 11.7068 39.368 13.7649 41.2437 14.5986C42.6766 15.2239 44.1095 15.1457 45.4902 14.4423C47.5483 13.3742 48.6686 11.7068 48.7988 9.46633Z"></path>
</svg>
