<svg xmlns="http://www.w3.org/2000/svg" fill="none" viewBox="0 0 47 48" height="48" width="47">
<g clip-path="url(#clip0_53_12166)">
<path stroke-width="3.98599" stroke="#C7AEFF" fill="#C7AEFF" d="M34.4471 34.5592C34.749 32.0436 34.6585 31.6747 36.5323 32.0822L37.008 32.124C38.4488 32.1895 40.3335 31.8922 41.4408 31.3778C43.8244 30.2718 45.2378 28.4253 42.8874 28.9105C37.5262 30.0164 37.1577 28.2011 37.1577 28.2011C42.8188 19.8014 45.1853 9.13887 43.1426 6.5289C37.5711 -0.590183 27.927 2.77627 27.7656 2.86367L27.7143 2.87316C26.655 2.65337 25.4695 2.52205 24.1377 2.50052C21.7116 2.46065 19.8707 3.13654 18.4742 4.19573C18.4742 4.19573 1.26967 -2.89233 2.07005 13.1097C2.24028 16.5138 6.94945 38.8678 12.566 32.1159C14.6189 29.6469 16.6027 27.5593 16.6027 27.5593C17.5878 28.2138 18.7673 28.5476 20.0042 28.4277L20.0999 28.3462C20.0699 28.6527 20.0831 28.9526 20.1381 29.3075C18.6915 30.9242 19.1166 31.208 16.2238 31.8034C13.2971 32.4066 15.0165 33.4805 16.1388 33.7612C17.4998 34.1015 20.6482 34.5836 22.776 31.6055L22.6913 31.9453C23.2589 32.3994 23.2205 35.209 23.301 37.2164C23.3816 39.224 23.516 41.0973 23.9252 42.2018C24.3344 43.3061 24.8172 46.151 28.619 45.3362C31.7964 44.6553 34.2257 43.6754 34.4471 34.5592Z"></path>
<path fill="white" d="M42.8885 28.9099C37.5268 30.0159 37.1582 28.2006 37.1582 28.2006C42.8193 19.8004 45.1858 9.13758 43.1436 6.52792C37.5721 -0.590731 27.9275 2.77593 27.7666 2.86334L27.7148 2.87261C26.6555 2.65271 25.47 2.52171 24.1376 2.49997C21.7115 2.46021 19.8712 3.136 18.4748 4.19497C18.4748 4.19497 1.26986 -2.89277 2.07004 13.1091C2.24026 16.5134 6.94933 38.8675 12.5661 32.1155C14.6191 29.6466 16.6026 27.559 16.6026 27.559C17.5878 28.2135 18.7672 28.5473 20.0037 28.4274L20.0997 28.3458C20.0699 28.6524 20.0835 28.9522 20.1382 29.3072C18.6912 30.9238 19.1164 31.2077 16.2239 31.8031C13.297 32.4063 15.0164 33.4802 16.139 33.7609C17.5 34.1012 20.6486 34.5833 22.776 31.6052L22.6912 31.945C23.2581 32.3991 23.6562 34.8987 23.5895 37.1646C23.5228 39.4306 23.4782 40.9863 23.9249 42.2014C24.3717 43.4166 24.8169 46.1506 28.6194 45.3358C31.7968 44.6549 33.4433 42.8904 33.6723 39.9472C33.8349 37.8547 34.2027 38.164 34.226 36.2932L34.521 35.4076C34.8613 32.5711 34.5751 31.656 36.5326 32.0816L37.0083 32.1234C38.4491 32.189 40.3348 31.8917 41.4415 31.3773C43.8247 30.2713 45.2381 28.4247 42.8883 28.9099H42.8885Z"></path>
<path stroke-linejoin="round" stroke-linecap="round" stroke-width="1.32866" stroke="#9D66FF" d="M23.0062 30.5361C22.8586 35.8141 23.0433 41.1288 23.5597 42.4205C24.0765 43.7121 25.1824 46.2245 28.9852 45.4098C32.1622 44.7287 33.3182 43.4106 33.8198 40.5012C34.1893 38.3606 34.9015 32.4159 34.9929 31.1978"></path>
<path stroke-linejoin="round" stroke-linecap="round" stroke-width="1.32866" stroke="#9D66FF" d="M18.4472 4.07742C18.4472 4.07742 1.23058 -2.95927 2.03097 13.0426C2.2012 16.4469 6.91058 38.8017 12.5273 32.0494C14.5798 29.5802 16.4361 27.6435 16.4361 27.6435"></path>
<path stroke-linejoin="round" stroke-linecap="round" stroke-width="1.32866" stroke="#9D66FF" d="M27.7477 2.79341C27.1518 2.98026 37.3247 -0.925428 43.106 6.46194C45.1482 9.0717 42.7817 19.7345 37.1207 28.1349"></path>
<path stroke-linejoin="bevel" stroke-linecap="round" stroke-width="1.32866" stroke="#9D66FF" d="M37.1207 28.1349C37.1207 28.1349 37.4896 29.9508 42.8514 28.8441C45.2006 28.3589 43.7868 30.2056 41.4042 31.3122C39.4488 32.2197 35.0648 32.4523 34.9932 31.1982C34.8089 27.9627 37.3005 28.9456 37.1207 28.1349ZM37.1207 28.1349C36.9581 27.4048 35.8439 26.6882 35.1068 24.9012C34.4634 23.3414 26.2816 11.3803 37.3758 13.1567C37.7823 13.0726 34.4823 2.60402 24.0997 2.43379C13.7193 2.26357 14.0599 15.1993 14.0599 15.1993"></path>
<path stroke-linejoin="round" stroke-linecap="round" stroke-width="1.32866" stroke="#9D66FF" d="M20.099 29.2412C18.6518 30.8578 19.0774 31.1416 16.1846 31.7373C13.2578 32.3406 14.9774 33.4143 16.0997 33.6948C17.4606 34.0354 20.6092 34.5175 22.7367 31.5386C23.3845 30.6316 22.7328 29.1844 21.8429 28.8155C21.4129 28.6374 20.838 28.4142 20.099 29.2412Z"></path>
<path stroke-linejoin="round" stroke-linecap="round" stroke-width="1.32866" stroke="#9D66FF" d="M20.0031 29.2131C19.8572 28.2626 20.3154 27.1316 20.8063 25.8084C21.5441 23.823 23.2465 21.8373 21.8847 15.5395C20.8696 10.8464 14.0614 14.5628 14.0571 15.1992C14.053 15.8353 14.3651 18.4246 13.9434 21.4398C13.3932 25.3744 16.447 28.7021 19.9635 28.3616"></path>
<path stroke-width="0.442884" stroke="#9D66FF" fill="#9D66FF" d="M18.3844 15.1036C18.3537 15.3209 18.7823 15.9009 19.3411 15.9783C19.899 16.0562 20.3765 15.6029 20.4068 15.3858C20.4371 15.1685 20.009 14.9291 19.45 14.8513C18.8917 14.7733 18.414 14.8868 18.3845 15.1036H18.3844Z"></path>
<path stroke-width="0.221442" stroke="#9D66FF" fill="#9D66FF" d="M35.3762 14.6606C35.4065 14.878 34.9784 15.4579 34.4194 15.5354C33.8611 15.6132 33.3836 15.16 33.353 14.9429C33.3235 14.7256 33.7517 14.4862 34.3101 14.4083C34.8685 14.3305 35.3459 14.4438 35.3762 14.6608V14.6606Z"></path>
<path stroke-linejoin="round" stroke-linecap="round" stroke-width="1.32866" stroke="#9D66FF" d="M37.3752 13.1562C37.4672 14.8611 37.008 16.0223 36.9501 17.8371C36.8644 20.475 38.2077 23.4943 36.1836 26.5173"></path>
</g>
<defs>
<clipPath id="clip0_53_12166">
<rect transform="translate(-0.00390625)" fill="white" height="47.4736" width="46.0547"></rect>
</clipPath>
</defs>
</svg>
