<svg xmlns="http://www.w3.org/2000/svg" fill="none" viewBox="0 0 47 40" height="40" width="47">
<mask height="40" width="47" y="0" x="0" maskUnits="userSpaceOnUse" style="mask-type:luminance" id="mask0_53_12179">
<path fill="white" d="M46.7504 0H0.296875V39.8101H46.7504V0Z"></path>
</mask>
<g mask="url(#mask0_53_12179)">
<path fill="#C7AEFF" d="M44.923 30.6926C42.4484 31.987 29.6056 37.2694 26.8391 38.7193C24.0725 40.1692 22.5909 40.128 20.4272 39.0937C18.2634 38.0594 4.64337 32.52 2.17507 31.3398C0.9314 30.756 0.296875 30.2579 0.296875 29.7916V25.0929C0.296875 25.0929 18.089 21.2318 20.9602 20.1912C23.8314 19.1506 24.8244 19.1252 27.2642 20.0199C29.7039 20.9146 44.3297 23.5542 46.7441 24.4298V29.0619C46.7441 29.5441 46.1889 30.0137 44.923 30.6894V30.6926Z"></path>
<path fill="white" d="M44.9223 26.0158C42.4476 27.3038 29.6048 32.5863 26.8383 34.0108C24.0718 35.4353 22.5902 35.4226 20.4264 34.3915C18.2627 33.3604 4.64263 27.821 2.17433 26.6503C-0.293972 25.4796 -0.341562 24.6611 2.07915 23.7156C4.49986 22.7702 18.0882 17.4497 20.9594 16.4027C23.8307 15.3557 24.8237 15.3335 27.2634 16.2314C29.7032 17.1292 42.492 22.2086 44.8937 23.0938C47.2954 23.9789 47.4064 24.7055 44.9223 25.9904V26.0158Z"></path>
<path fill="#C7AEFF" d="M44.923 23.0399C42.4484 24.3311 29.6056 29.6104 26.8391 31.0349C24.0725 32.4594 22.6036 32.4467 20.4399 31.4093C18.2761 30.3718 4.64337 24.8641 2.17507 23.6871C0.9314 23.097 0.296875 22.602 0.296875 22.1325V17.4497C0.296875 17.4497 18.089 13.5759 20.9602 12.5353C23.8314 11.4947 24.8244 11.4661 27.2642 12.3735C29.7039 13.2809 44.3297 15.8951 46.7441 16.7771V21.4091C46.7441 21.8914 46.1889 22.3736 44.923 23.0399Z"></path>
<path fill="white" d="M44.9211 18.3414C42.4464 19.6359 29.6036 24.9151 26.8371 26.3396C24.0706 27.7641 22.589 27.7546 20.4252 26.7203C18.2615 25.6861 4.64142 20.1689 2.17312 18.9886C-0.295179 17.8084 -0.339596 17.0058 2.07794 16.0603C4.49548 15.1149 18.087 9.78169 20.9582 8.76328C23.8295 7.74487 24.8225 7.68141 27.2622 8.56658C29.702 9.45174 42.4908 14.5755 44.8925 15.4353C47.2942 16.2951 47.4052 17.0502 44.9211 18.3319V18.3414Z"></path>
<path fill="#C7AEFF" d="M44.923 15.0989C42.4484 16.3934 29.6056 21.6758 26.8391 23.0971C24.0725 24.5185 22.6036 24.5089 20.4399 23.4778C18.2761 22.4467 4.64337 16.9232 2.17507 15.7462C0.9314 15.1624 0.296875 14.6643 0.296875 14.1947V9.49608C0.296875 9.49608 18.089 5.635 20.9602 4.59755C23.8314 3.5601 24.8244 3.52838 27.2642 4.42306C29.7039 5.31774 44.3234 7.95736 46.7378 8.83935V13.4714C46.7441 13.96 46.1889 14.4359 44.923 15.0989Z"></path>
<path fill="white" d="M44.9223 10.4065C42.4476 11.6756 29.6048 16.9897 26.8383 18.4015C24.0718 19.8133 22.5902 19.8102 20.4264 18.7822C18.2627 17.7543 4.64263 12.2244 2.17433 11.0505C-0.293972 9.87667 -0.341562 9.06131 2.07915 8.11587C4.49986 7.17042 18.0882 1.84042 20.9594 0.806141C23.8307 -0.228134 24.8237 -0.25986 27.2634 0.63482C29.7032 1.5295 42.492 6.61522 44.8937 7.4972C47.2954 8.37919 47.4064 9.11207 44.9223 10.397V10.4065Z"></path>
</g>
<path fill="#C7AEFF" d="M24.2508 3.73438L27.3155 2.72866L26.4843 4.71472L29.603 5.88225L25.5833 6.30103L24.6791 8.47111L23.226 6.0504L18.5781 5.63161L22.049 4.38159L21.0052 2.45898L24.2508 3.73438Z"></path>
<path fill="#C7AEFF" d="M24.4425 16.4025L16.9297 13.2838L27.6912 11.6309L24.4425 16.4025Z"></path>
<path fill="#C7AEFF" d="M14.0286 7.08789C17.2012 7.08789 19.7805 8.08727 19.7805 9.30873C19.7805 10.5302 17.1949 11.5296 14.0286 11.5296C10.8623 11.5296 8.27344 10.5302 8.27344 9.30873C8.27344 8.08727 10.8528 7.08789 14.0286 7.08789Z"></path>
<path fill="#9D66FF" d="M34.3633 6.4751L40.7307 8.99099L34.3696 11.5069L34.3633 6.4751Z"></path>
<path fill="#C7AEFF" d="M34.366 6.4751L34.3723 11.5069L33.6807 11.7766L27.3164 9.26066L34.366 6.4751Z"></path>
</svg>
