<?xml version="1.0" encoding="UTF-8"?>
<svg xmlns="http://www.w3.org/2000/svg" xmlns:xlink="http://www.w3.org/1999/xlink" width="42px" height="14px" viewBox="0 0 42 14" version="1.1">
  <title>Cloudflare_Logo</title>
  <desc>Created with Sketch.</desc>
  <g id="Website" stroke="none" stroke-width="1" fill="none" fill-rule="evenodd">
    <g id="Artboard" transform="translate(-223.000000, -271.000000)" fill="#FFFFFF" fill-rule="nonzero">
      <g id="Cloudflare_Logo" transform="translate(223.000000, 271.000000)">
        <path d="M35.3011121,8.42202222 C35.4417169,8.06525652 35.3935753,7.66533282 35.1719009,7.34863492 C34.9452583,7.08816947 34.6198554,6.92478944 34.2674225,6.89450952 L26.7731733,6.81194127 C26.7301029,6.81194127 26.6870325,6.77065714 26.6439621,6.77065714 C26.623627,6.75603835 26.6116593,6.7330956 26.6116593,6.70873095 C26.6116593,6.6843663 26.623627,6.66142355 26.6439621,6.64680476 C26.6870325,6.56423651 26.7301029,6.52295238 26.8162437,6.52295238 L34.3535633,6.44038413 C35.3278821,6.33674106 36.1678572,5.73683386 36.5501536,4.8715873 L36.9808576,3.7982 C36.9808576,3.75691587 37.023928,3.71563174 36.9808576,3.67434762 C36.4997057,1.62008915 34.653327,0.122295364 32.4601282,0.00710415173 C30.2669294,-0.108087061 28.2608735,1.18736911 27.5484404,3.17893809 C27.0983385,2.87080709 26.5493211,2.72462715 25.9979061,2.76609682 C24.9556206,2.87749368 24.1328845,3.66610821 24.0166678,4.66516666 C23.9879889,4.91344836 24.0025439,5.16457213 24.0597382,5.40828095 C22.357183,5.45339373 21.0015024,6.78945415 21.0017399,8.42202222 C20.9946718,8.57456632 21.0091599,8.72732596 21.0448103,8.87614762 C21.048904,8.94285654 21.1044263,8.99607613 21.1740215,9 L34.9996193,9 C35.0857601,9 35.1719009,8.95871587 35.1719009,8.87614762 L35.3011121,8.42202222 Z" id="Path" fill-opacity="0.57"></path>
        <path d="M37.6405527,4 L37.4637397,4 C37.4283771,4 37.3930145,4.04031391 37.3576518,4.08062782 L37.1101136,5.04816167 C36.9946712,5.39654304 37.0341975,5.78706815 37.2162014,6.09632335 C37.4022845,6.35066761 37.6694539,6.51020805 37.9588161,6.53977636 L39.2672324,6.62040419 C39.302595,6.62040419 39.3379576,6.6607181 39.3733202,6.6607181 C39.3900162,6.67499333 39.3998422,6.6973969 39.3998422,6.72118896 C39.3998422,6.74498102 39.3900162,6.76738459 39.3733202,6.78165983 C39.3379576,6.86228765 39.302595,6.90260156 39.2318698,6.90260156 L37.8880909,6.98322938 C37.0881343,7.08443673 36.3984795,7.67024554 36.0845981,8.51515798 L36.0138729,8.87798318 C35.9785103,8.91829709 36.0138729,8.99892491 36.0845981,8.99892491 L40.7524618,8.99892491 C40.7816795,9.00368245 40.8111571,8.99248037 40.8320268,8.96868853 C40.8528966,8.94489669 40.8627228,8.91129187 40.8585496,8.87798318 C40.9427406,8.53641082 40.9902383,8.18444779 41,7.8298215 C40.9883358,5.72020197 39.4910712,4.01329732 37.6405527,4" id="Path" fill-opacity="0.57"></path>
        <path d="M41.627213,11.7240105 C41.4764374,11.7240105 41.340508,11.6448121 41.2828087,11.5233497 C41.2251094,11.4018874 41.2570029,11.2620781 41.3636174,11.1691148 C41.4702319,11.0761515 41.6305714,11.0483417 41.7698699,11.0986531 C41.9091685,11.1489645 41.9999968,11.267489 41.9999968,11.398959 C42.0004075,11.4852774 41.9612655,11.5681647 41.8912656,11.6292016 C41.8212658,11.6902385 41.7262069,11.7243687 41.627213,11.7240105 L41.627213,11.7240105 Z M41.627213,11.1461433 C41.4670833,11.1461433 41.3372726,11.2593327 41.3372726,11.398959 C41.3372726,11.5385852 41.4670833,11.6517747 41.627213,11.6517747 C41.7873427,11.6517747 41.9171534,11.5385852 41.9171534,11.398959 C41.9190423,11.3314166 41.8891021,11.2661506 41.8343129,11.2183767 C41.7795237,11.1706029 41.7046736,11.1444963 41.627213,11.1461433 L41.627213,11.1461433 Z M41.7928933,11.5795416 L41.7100531,11.5795416 L41.627213,11.471192 L41.5443729,11.471192 L41.5443729,11.5795416 L41.4615328,11.5795416 L41.4615328,11.2544929 L41.6686331,11.2544929 C41.7028557,11.2502307 41.7373826,11.2602664 41.7618272,11.2815811 C41.7862719,11.3028958 41.7977813,11.3330018 41.7928933,11.3628424 C41.7928933,11.398959 41.7514732,11.4350755 41.7100531,11.471192 L41.7928933,11.5795416 L41.7928933,11.5795416 Z M41.6686331,11.398959 C41.7100531,11.398959 41.7100531,11.398959 41.7100531,11.3628424 C41.7102882,11.3532024 41.7059999,11.3438964 41.6981806,11.3370783 C41.6903612,11.3302602 41.6796887,11.3265209 41.6686331,11.3267259 L41.5443729,11.3267259 L41.5443729,11.4350755 L41.6686331,11.4350755 L41.6686331,11.398959 Z M4.5148394,11.0739102 L5.42608072,11.0739102 L5.42608072,13.2409018 L7.00004299,13.2409018 L7.00004299,13.9271158 L4.5148394,13.9271158 L4.5148394,11.0739102 Z M7.95267765,12.4824548 C7.95273512,12.0770477 8.14316184,11.6893365 8.47965569,11.4095751 C8.81614955,11.1298137 9.26935326,10.9824098 9.73376694,11.0016772 C10.1939594,10.9836039 10.6421755,11.1325754 10.9718112,11.4131601 C11.3014469,11.6937448 11.4830433,12.0808676 11.4734095,12.4824548 C11.4733787,12.8878618 11.282952,13.2755731 10.9464581,13.5553345 C10.6099643,13.8350959 10.1567606,13.9824997 9.69234688,13.9632323 C9.23412063,13.9751084 8.79003192,13.8241071 8.46199222,13.5448809 C8.13395252,13.2656546 7.9501283,12.8821787 7.95267765,12.4824548 L7.95267765,12.4824548 Z M10.5621681,12.4824548 C10.5785727,12.2801316 10.4993318,12.0807649 10.3428597,11.9306842 C10.1863876,11.7806035 9.96630917,11.6928771 9.73376694,11.6878912 C9.26986227,11.7076349 8.90536575,12.0413516 8.90536575,12.4463382 C8.90536575,12.8513249 9.26986227,13.1850416 9.73376694,13.2047853 C10.2308077,13.2770183 10.5621681,12.9158531 10.5621681,12.4824548 L10.5621681,12.4824548 Z M12.5917511,12.6630374 L12.5917511,11.0739102 L13.5029924,11.0739102 L13.5029924,12.6630374 C13.5029924,13.0603192 13.7515127,13.2770183 14.1242933,13.2770183 C14.3006707,13.2898031 14.4740806,13.2316158 14.5951284,13.1190307 C14.7161762,13.0064456 14.7715932,12.8518038 14.7455942,12.6991539 L14.7455942,11.0739102 L15.6568355,11.0739102 L15.6568355,12.6630374 C15.6568355,13.6020671 15.0355346,13.9993489 14.1242933,13.9993489 C13.1716319,13.9632323 12.5917511,13.5659505 12.5917511,12.6630374 L12.5917511,12.6630374 Z M17.0236975,11.0739102 L18.3077193,11.0739102 C19.467481,11.0739102 20.171622,11.6517747 20.171622,12.4824548 C20.171622,13.3131349 19.467481,13.9271158 18.3077193,13.9271158 L17.0651175,13.9271158 L17.0651175,11.0739102 L17.0236975,11.0739102 Z M18.3077193,13.2047853 C18.6225362,13.2309869 18.927178,13.0993263 19.0939085,12.8650088 C19.2606389,12.6306913 19.2606389,12.3342182 19.0939085,12.0999007 C18.927178,11.8655832 18.6225362,11.7339226 18.3077193,11.7601242 L17.9349388,11.7601242 L17.9349388,13.2047853 L18.3077193,13.2047853 Z M21.4556439,11.0739102 L24.0651076,11.0739102 L24.0651076,11.7601242 L22.3668852,11.7601242 L22.3668852,12.2296391 L23.8994274,12.2296391 L23.8994274,12.8797365 L22.3668852,12.8797365 L22.3668852,13.9271158 L21.4556439,13.9271158 L21.4556439,11.0739102 Z M25.3491295,11.0739102 L26.2603708,11.0739102 L26.2603708,13.2409018 L27.8343331,13.2409018 L27.8343331,13.9271158 L25.3491295,13.9271158 L25.3491295,11.0739102 Z M30.1952765,11.0377937 L31.1065178,11.0377937 L32.5147998,13.9271158 L31.5207184,13.9271158 L31.2721981,13.4214844 L29.9881762,13.4214844 L29.7396558,13.9271158 L28.7869945,13.9271158 L30.1952765,11.0377937 Z M31.0236777,12.8075035 L30.6508972,12.0129399 L30.2781166,12.8075035 L31.0236777,12.8075035 Z M33.6745615,11.0739102 L35.2071037,11.0739102 C35.6024473,11.0459409 35.993117,11.1638573 36.2840253,11.398959 C36.5248712,11.6253825 36.6240717,11.9399375 36.5498627,12.2419039 C36.4756537,12.5438702 36.2373457,12.7953625 35.9112448,12.9158531 L36.6982259,13.9271158 L35.6627244,13.9271158 L35.0000034,13.0603192 L34.5858028,13.0603192 L34.5858028,13.9271158 L33.6745615,13.9271158 L33.6745615,11.0739102 Z M35.1656837,12.4463382 C35.4556241,12.4463382 35.6627244,12.3018721 35.6627244,12.1212895 C35.6627244,11.9045903 35.4556241,11.7962408 35.1656837,11.7962408 L34.5858028,11.7962408 L34.5858028,12.4824548 L35.1656837,12.4824548 L35.1656837,12.4463382 Z M37.8579876,11.0739102 L40.5088714,11.0739102 L40.5088714,11.7240077 L38.7692289,11.7240077 L38.7692289,12.157406 L40.3431912,12.157406 L40.3431912,12.8075035 L38.7692289,12.8075035 L38.7692289,13.2409018 L40.5502915,13.2409018 L40.5502915,13.9271158 L37.8579876,13.9271158 L37.8579876,11.0739102 Z M2.52667653,12.84362 C2.39901986,13.1044449 2.10633023,13.2745868 1.78111546,13.2770183 C1.31721078,13.2572746 0.952714258,12.9235579 0.952714258,12.5185713 C0.952714258,12.1135846 1.31721078,11.7798679 1.78111546,11.7601242 C2.12729861,11.7659197 2.4364918,11.9503851 2.56809659,12.2296391 L3.52075797,12.2296391 C3.35247348,11.5152358 2.61697908,11.0113417 1.78111546,11.0377937 C1.31860693,11.024679 0.869445858,11.1741316 0.534534129,11.4525776 C0.199622401,11.7310236 0.00704116564,12.1151164 2.61673745e-05,12.5185713 C-0.00252318296,12.9182952 0.181301035,13.3017711 0.509340735,13.5809974 C0.837380435,13.8602236 1.28146914,14.0112249 1.7396954,13.9993489 C2.55361478,14.004136 3.26859798,13.529138 3.47933791,12.84362 L2.52667653,12.84362 Z" id="Shape" fill-opacity="0.6"></path>
      </g>
    </g>
  </g>
</svg>
