<?xml version="1.0" encoding="iso-8859-1"?>
<!-- Uploaded to: SVG Repo, www.svgrepo.com, Generator: SVG Repo Mixer Tools -->
<svg height="800px" width="800px" version="1.1" id="Layer_1" xmlns="http://www.w3.org/2000/svg" xmlns:xlink="http://www.w3.org/1999/xlink" 
	 viewBox="0 0 392.598 392.598" xml:space="preserve">
<path style="fill:#FFFFFF;" d="M359.855,260.331h-76.606l-18.554,26.764c-2.004,2.909-5.43,4.719-8.986,4.719h-118.82
	c-3.556,0-6.982-1.745-8.986-4.719l-18.554-26.764H32.743c-6.012,0-10.925,4.848-10.925,10.925v88.63
	c0,6.012,4.848,10.925,10.925,10.925h327.111c6.012,0,10.925-4.848,10.925-10.925v-88.695
	C370.78,265.18,365.867,260.331,359.855,260.331z"/>
<g>
	<path style="fill:#194F82;" d="M71.919,21.851h248.824c6.012,0,10.925-4.848,10.925-10.925S326.82,0,320.743,0H71.919
		c-6.012,0-10.925,4.848-10.925,10.925S65.842,21.851,71.919,21.851z"/>
	<path style="fill:#194F82;" d="M128.937,116.816c7.37,0,13.382,5.947,13.382,13.382c0,6.012,4.848,10.925,10.925,10.925
		c6.077,0,10.925-4.848,10.925-10.925c0-15.515-10.214-28.832-24.242-33.358v-5.56c0-6.012-4.848-10.925-10.925-10.925
		c-6.012,0-10.925,4.848-10.925,10.925v5.56c-14.093,4.655-24.242,17.842-24.242,33.358c0,19.394,15.774,35.168,35.168,35.168h0.065
		c6.723,0.711,13.317,6.271,13.317,13.188c0,7.37-5.947,13.382-13.382,13.382c-7.37,0-13.382-5.947-13.382-13.382
		c0-6.012-4.848-10.925-10.925-10.925c-6.077,0-10.925,4.848-10.925,10.925c0,15.515,10.214,28.832,24.242,33.358v5.56
		c0,6.012,4.848,10.925,10.925,10.925c6.012,0,10.925-4.848,10.925-10.925v-5.56c14.093-4.655,24.242-17.842,24.242-33.358
		c0-19.394-17.067-35.103-36.461-35.103h-0.065c-6.723-0.711-11.96-6.335-11.96-13.317
		C115.556,122.828,121.503,116.816,128.937,116.816z"/>
	<path style="fill:#194F82;" d="M203.281,123.604h84.687c6.012,0,10.925-4.848,10.925-10.925s-4.848-10.925-10.925-10.925h-84.687
		c-6.012,0-10.925,4.848-10.925,10.925S197.204,123.604,203.281,123.604z"/>
	<path style="fill:#194F82;" d="M287.968,146.877h-84.687c-6.012,0-10.925,4.848-10.925,10.925s4.848,10.925,10.925,10.925h84.687
		c6.012,0,10.925-4.848,10.925-10.925S293.98,146.877,287.968,146.877z"/>
	<path style="fill:#194F82;" d="M287.968,191.935h-84.687c-6.012,0-10.925,4.848-10.925,10.925c0,6.012,4.848,10.925,10.925,10.925
		h84.687c6.012,0,10.925-4.848,10.925-10.925C298.828,196.784,293.98,191.935,287.968,191.935z"/>
</g>
<path style="fill:#56ACE0;" d="M124.024,243.135l18.554,26.764h107.313l18.554-26.764c2.004-2.909,5.43-4.719,8.986-4.719h60.251
	V70.271H54.917v168.145h60.186C118.659,238.545,122.02,240.226,124.024,243.135z M203.281,101.818h84.687
	c6.012,0,10.925,4.848,10.925,10.925c0,6.012-4.848,10.925-10.925,10.925h-84.687c-6.012,0-10.925-4.848-10.925-10.925
	C192.356,106.667,197.204,101.818,203.281,101.818z M203.281,146.877h84.687c6.012,0,10.925,4.848,10.925,10.925
	c0,6.012-4.848,10.925-10.925,10.925h-84.687c-6.012,0-10.925-4.848-10.925-10.925S197.204,146.877,203.281,146.877z
	 M203.281,191.935h84.687c6.012,0,10.925,4.848,10.925,10.925s-4.848,10.925-10.925,10.925h-84.687
	c-6.012,0-10.925-4.848-10.925-10.925S197.204,191.935,203.281,191.935z M93.77,178.618c0-6.012,4.848-10.925,10.925-10.925
	c6.077,0,10.925,4.848,10.925,10.925c0,7.37,5.947,13.382,13.382,13.382c7.37,0,13.382-5.947,13.382-13.382
	c0-6.853-6.594-12.541-13.317-13.188c-0.065,0-0.323,0-0.065,0c-19.394,0-35.168-15.774-35.168-35.168
	c0-15.515,10.214-28.832,24.242-33.358v-5.56c0-6.012,4.848-10.925,10.925-10.925s10.925,4.848,10.925,10.925v5.56
	c14.093,4.655,24.242,17.842,24.242,33.358c0,6.012-4.848,10.925-10.925,10.925c-6.077,0-10.925-4.848-10.925-10.925
	c0-7.37-5.947-13.382-13.382-13.382c-7.37,0-13.382,5.947-13.382,13.382c0,6.853,5.236,12.606,11.96,13.317c0.065,0,0.323,0,0.065,0
	c19.394,0,36.461,15.709,36.461,35.103c0,15.515-10.214,28.832-24.242,33.358v5.56c0,6.012-4.848,10.925-10.925,10.925
	c-6.077,0-10.925-4.848-10.925-10.925v-5.56C103.984,207.386,93.77,194.198,93.77,178.618z"/>
<path style="fill:#194F82;" d="M359.855,238.545h-0.388V59.41c0-6.012-4.848-10.925-10.925-10.925H43.992
	c-6.012,0-10.925,4.848-10.925,10.925v179.135h-0.323c-18.036,0-32.711,14.675-32.711,32.711v88.63
	c0,18.036,14.675,32.711,32.711,32.711h327.111c18.036,0,32.711-14.675,32.711-32.711v-88.695
	C392.566,253.22,377.891,238.545,359.855,238.545z M54.917,70.271h282.828v168.145H277.56c-3.556,0-6.982,1.745-8.986,4.719
	l-18.554,26.764H142.578l-18.554-26.764c-2.004-2.909-5.43-4.719-8.986-4.719H54.917V70.271z M370.78,359.887
	c0,6.012-4.848,10.925-10.925,10.925H32.743c-6.012,0-10.925-4.848-10.925-10.925v-88.695c0-6.012,4.848-10.925,10.925-10.925
	h76.671l18.554,26.764c2.004,2.909,5.43,4.719,8.986,4.719h118.756c3.556,0,6.853-1.745,8.986-4.719l18.554-26.764h76.671
	c6.012,0,10.925,4.848,10.925,10.925v88.695H370.78z"/>
<path style="fill:#FFC10D;" d="M359.855,260.331h-76.606l-18.554,26.764c-2.004,2.909-5.43,4.719-8.986,4.719h-118.82
	c-3.556,0-6.982-1.745-8.986-4.719l-18.554-26.764H32.743c-6.012,0-10.925,4.848-10.925,10.925v14.933h45.576
	c5.947,0,10.796,4.848,10.796,10.796l0,0c0,5.947-4.848,10.796-10.796,10.796H21.818v19.329h22.174
	c6.012,0,10.925,4.848,10.925,10.925c0,6.012-4.848,10.925-10.925,10.925H21.818v10.925c0,6.012,4.848,10.925,10.925,10.925h327.111
	c6.012,0,10.925-4.848,10.925-10.925v-88.695C370.78,265.18,365.867,260.331,359.855,260.331z"/>
</svg>