<?xml version="1.0" encoding="UTF-8"?>
<svg xmlns="http://www.w3.org/2000/svg" xmlns:xlink="http://www.w3.org/1999/xlink" width="54px" height="14px" viewBox="0 0 54 14" version="1.1">
  <title>litespeed-logo-2</title>
  <desc>Created with Sketch.</desc>
  <g id="Website" stroke="none" stroke-width="1" fill="none" fill-rule="evenodd" fill-opacity="0.57">
    <g id="Artboard" transform="translate(-329.000000, -423.000000)" fill="#FFFFFF" fill-rule="nonzero">
      <g id="litespeed-logo-2" transform="translate(329.000000, 423.000000)">
        <path d="M14.3185601,3.20322116 L14.3185601,9.27769173 C14.3185601,9.33468577 14.3626647,9.38270852 14.4187371,9.38827359 C14.7366715,9.41461175 15.0900803,9.41461175 15.4614171,9.38827359 C15.7644751,9.36438215 16.1343815,9.3207251 16.590542,9.25432801 C16.5741876,9.34720718 16.5659388,9.44728257 16.5659388,9.55556165 C16.5659388,9.64786512 16.5752842,9.76003016 16.5930691,9.88135837 L13,9.88135837 L13,3.20475636 C13.0685647,3.21036941 13.1568216,3.22154753 13.2659149,3.23637174 C13.4255973,3.26405318 13.5890942,3.26477281 13.6865534,3.23857858 L14.0098757,3.23689946 C14.1326533,3.22010829 14.2344515,3.20835447 14.3185601,3.20322116 Z M18.6255512,3.53539853 C18.4339228,3.56231238 18.3061387,3.56274416 18.2139244,3.53688575 L17.8908404,3.53688575 C17.7766453,3.52129395 17.6895328,3.51097937 17.6238289,3.50474265 L17.6238289,9.88135837 L18.8744441,9.88135837 L18.8744441,3.50330341 C18.8027324,3.50877253 18.7205787,3.51942293 18.6255512,3.53539853 Z M19.8642463,3.49879378 C19.8763572,3.58927421 19.8824126,3.67985059 19.8824126,3.76802824 C19.8824126,3.884511 19.8767386,3.98708108 19.8662489,4.07506682 L20.07509,4.07506682 C20.6669973,3.99969844 21.1639248,3.96122267 21.5448931,3.96122267 C21.6058766,3.96122267 21.6551307,4.01063669 21.6551307,4.07132479 L21.6551307,9.8813104 L22.8681735,9.8813104 L22.8681735,4.07132479 C22.8681735,4.01063669 22.9175707,3.96122267 22.9784111,3.96122267 C23.2555786,3.96122267 23.6523768,3.98708108 24.1585067,4.0372627 C24.2863385,4.05597286 24.4223713,4.06748681 24.5641258,4.07285998 C24.5496309,3.98473031 24.5496309,3.8839353 24.564698,3.77090672 C24.5487726,3.68061819 24.5496786,3.58922624 24.5673204,3.49879378 L19.8642463,3.49879378 L19.8642463,3.49879378 Z M25.563035,3.49884175 L25.563035,9.88135837 L28.9898894,9.88135837 C28.9731058,9.76655473 28.9643802,9.66105819 28.9643802,9.57427181 C28.9643802,9.47525187 28.9719615,9.38208485 28.9855504,9.29688164 C28.7526783,9.33267082 28.4924851,9.36126379 28.2139348,9.38059763 C27.8898019,9.40669591 27.4433682,9.41955315 26.8858863,9.41955315 C26.8255226,9.41955315 26.7761732,9.36965938 26.7761732,9.30863546 L26.7761732,6.8414365 C26.7761732,6.78094031 26.8255226,6.73114249 26.8858863,6.73114249 L27.8027371,6.73114249 C28.1083699,6.7489891 28.3540682,6.76707559 28.5999095,6.78501816 L28.7814297,6.79782743 C28.7761848,6.77312042 28.7702247,6.74553492 28.7636448,6.71679803 L28.7600211,6.2723117 C28.7600211,6.25998218 28.7620237,6.24784456 28.7661242,6.23700226 C28.7685082,6.22841478 28.771083,6.21958742 28.7738961,6.21138373 C28.4509076,6.25149064 28.15524,6.26866562 27.8027848,6.26866562 L26.885934,6.26866562 C26.8255703,6.26866562 26.7762209,6.21901172 26.7762209,6.1581797 L26.7762209,4.07132479 C26.7762209,4.01063669 26.8255703,3.96122267 26.885934,3.96122267 C27.5624744,3.96122267 28.2728681,4.00540744 28.9986149,4.09315331 C28.9758236,3.99250223 28.9643802,3.89597697 28.9643802,3.80597629 C28.9643802,3.69908848 28.9758236,3.59584675 28.9989487,3.49884175 L25.563035,3.49884175 Z M34.1494102,7.92029333 C34.1228044,7.13134809 33.5205504,6.43120417 32.3552358,5.84485642 C31.4916443,5.3974916 31.0724839,4.96221643 31.0724839,4.51696251 C31.0724839,3.7979645 31.490643,3.40318004 32.283095,3.37449112 C32.8216954,3.37449112 33.2362308,3.66478651 33.517165,4.23909259 C33.5463933,4.13805771 33.5871602,4.00905353 33.6406579,3.84661092 C33.7053128,3.67466932 33.7606223,3.53036118 33.8066818,3.41109588 C33.3925755,3.1626345 32.8934547,3.02441916 32.3219547,3 C30.8842884,3.07671167 30.1594475,3.74284148 30.1095259,5.03657734 C30.1095259,5.90808718 30.658616,6.60808718 31.7413954,7.11479679 C32.6470412,7.52848331 33.1055858,8.00285793 33.1055858,8.52324035 C33.048226,9.25428004 32.6149999,9.63721472 31.8176844,9.66633541 C31.0281409,9.63817422 30.5347894,9.26469056 30.3471661,8.55475978 L30.3334818,8.55475978 C30.282845,8.94071688 30.2025031,9.32139675 30.0942204,9.68768419 C30.574412,9.87032417 31.072913,9.97577274 31.5768019,10 C33.1687627,10 34.0473259,9.24156672 34.1494102,7.92029333 Z M36.2448307,7.00167226 C36.2253293,7.00306353 36.1980083,7.00766911 36.1751216,7.03064903 C36.1551435,7.05108629 36.1430326,7.07838394 36.1430326,7.10659311 L36.1430326,9.88135837 L34.8840256,9.88135837 L34.8840256,3.49783428 L37.1526222,3.49783428 C38.4510134,3.49783428 39.095131,3.99753958 39.1190667,5.02357618 C39.1283167,5.58229045 38.9757387,6.02677678 38.66591,6.34441779 C38.239073,6.7818998 37.4920606,7.00383113 36.4458523,7.00383113 C36.3816264,7.00383113 36.3169238,7.00277568 36.2448307,7.00167226 Z M36.2333874,6.67990542 C36.2816402,6.68705366 36.3342796,6.69093962 36.3868236,6.69093962 C36.5416903,6.69093962 36.7202543,6.66066753 36.9172229,6.60170653 C37.4885322,6.43696114 37.8057514,5.96925502 37.8594398,5.20492084 C37.8057514,4.34262216 37.4688401,3.86297032 36.8505654,3.77959016 L36.2485975,3.77959016 C36.1905702,3.77959016 36.1430802,3.82722911 36.1430802,3.88537455 L36.1430802,6.57580015 C36.1430326,6.62814063 36.1811771,6.6727092 36.2333874,6.67990542 Z M44.1565727,3.49783428 L44.1565727,9.8813104 L47.5890058,9.8813104 C47.5724606,9.76535536 47.5637827,9.65846755 47.5637827,9.56937838 C47.5637827,9.46843945 47.5708395,9.37330546 47.5861449,9.28671099 C47.3499828,9.32360359 47.0883115,9.35248441 46.8088077,9.37205812 C46.4821,9.39743678 46.0491122,9.40976629 45.483906,9.40976629 C45.4253542,9.40976629 45.3782935,9.36236721 45.3782935,9.3049414 L45.3782935,6.8408608 C45.3782935,6.78271537 45.4253542,6.73531629 45.483906,6.73531629 L46.500171,6.73531629 C46.8828557,6.75868001 47.2296846,6.78046056 47.5485726,6.80228908 C47.5428509,6.7759989 47.5365571,6.74673429 47.5287851,6.71430334 L47.5252091,6.27255157 C47.5252091,6.26046193 47.5266872,6.24894798 47.5305016,6.23887328 C47.5342684,6.22755123 47.5377968,6.21661298 47.5414205,6.20639435 C47.2237722,6.24429443 46.8737487,6.26425194 46.500171,6.26425194 L45.4835246,6.26425194 C45.4251158,6.26425194 45.378055,6.21661298 45.378055,6.15865945 L45.378055,4.07449112 C45.378055,4.01624974 45.4251158,3.96913851 45.4835246,3.96913851 C46.1611617,3.96913851 46.872652,4.01389898 47.5987803,4.10198067 C47.5748446,3.9990268 47.5630675,3.90096635 47.5630675,3.80976629 C47.5630675,3.7 47.5748446,3.59584675 47.5996862,3.49783428 L44.1565727,3.49783428 L44.1565727,3.49783428 Z M50.560844,9.8813104 L48.4710974,9.8813104 L48.4710974,3.49783428 L51.1592359,3.49692276 C52.9716719,3.62146529 53.9014918,4.60341306 54,6.49385923 C53.8776992,8.61871016 52.7202043,9.75830306 50.560844,9.8813104 Z M52.5898454,6.49971215 C52.5898454,4.74517853 51.8065957,3.85491056 50.2628877,3.85491056 L49.7966189,3.85491056 C49.7394975,3.85491056 49.6920076,3.90264547 49.6920076,3.96083887 L49.6920076,9.41873758 C49.6920076,9.47597149 49.7394975,9.52385032 49.7966189,9.52385032 L50.2082457,9.52385032 C50.9974078,9.52385032 51.5994711,9.26473854 51.9981765,8.75438284 C52.3900159,8.25107943 52.5898454,7.4925502 52.5898454,6.49971215 Z M39.8219745,3.49783428 L39.8219745,9.8813104 L43.2539784,9.8813104 C43.2373379,9.76535536 43.2278018,9.65846755 43.2278018,9.56937838 C43.2278018,9.46843945 43.2356691,9.37330546 43.2505454,9.28671099 C43.0138588,9.32360359 42.752855,9.35248441 42.473971,9.37205812 C42.147168,9.39743678 41.713322,9.40976629 41.1477344,9.40976629 C41.0905653,9.40976629 41.04298,9.36236721 41.04298,9.3049414 L41.04298,6.8408608 C41.04298,6.78271537 41.0905653,6.73531629 41.1477344,6.73531629 L42.1651913,6.73531629 C42.547733,6.75868001 42.8945142,6.78046056 43.2134976,6.80228908 C43.2076805,6.7759989 43.2011006,6.74673429 43.193424,6.71430334 L43.1901341,6.27255157 C43.1901341,6.26046193 43.1920413,6.24894798 43.1957127,6.23887328 C43.1991934,6.22755123 43.2025787,6.21661298 43.2052488,6.20639435 C42.8887925,6.24429443 42.5391028,6.26425194 42.1651913,6.26425194 L41.1474006,6.26425194 C41.0905653,6.26425194 41.0426463,6.21661298 41.0426463,6.15865945 L41.0426463,4.07449112 C41.0426463,4.01624974 41.0905653,3.96913851 41.1474006,3.96913851 C41.8252284,3.96913851 42.5368141,4.01389898 43.2629424,4.10198067 C43.240008,3.9990268 43.2276587,3.90096635 43.2276587,3.80976629 C43.2276587,3.7 43.2402941,3.59584675 43.263753,3.49783428 L39.8219745,3.49783428 L39.8219745,3.49783428 Z" id="Shape"></path>
        <g id="Group">
          <g id="Path">
            <path d="M10.867854,6.79423944 L7.75319912,3.63965493 C7.74020354,3.62634507 7.72268142,3.61909859 7.70452655,3.61909859 C7.70311504,3.61909859 7.70180088,3.61909859 7.70058407,3.61909859 C7.68092035,3.62023239 7.66261947,3.62989437 7.65035398,3.64561972 L6.32290708,5.35159859 C6.30100442,5.3794507 6.3035354,5.41903521 6.32826106,5.44417606 L7.75860177,6.89258451 C7.80980531,6.94483803 7.8380354,7.01385211 7.8380354,7.08804225 C7.83769469,7.1609507 7.80931858,7.22927465 7.75865044,7.28029577 L7.34546903,7.69901408 C7.32225221,7.72262676 7.31865044,7.75959859 7.33661062,7.78700704 C7.43984513,7.94297887 7.60815487,8.2005 7.62416814,8.22874648 C7.67595575,8.33379577 7.69313717,8.60166901 7.54059735,8.71923944 L4.28669027,11.2505775 C4.26984956,11.2636408 4.25992035,11.2840493 4.25992035,11.3056901 C4.25992035,11.5867254 4.25953097,13.8421056 4.25977434,13.8650282 C4.25977434,13.9136831 4.25977434,13.9427183 4.29783628,13.9623873 C4.30742478,13.9673169 4.31788938,13.9695845 4.32884071,13.9695845 C4.35726549,13.9695845 4.36865487,13.9584437 4.39605752,13.9307887 L4.45027876,13.8751338 C4.4979292,13.8274648 10.8675619,7.37923239 10.8675619,7.37923239 C11.0254558,7.21739437 11.024969,6.95523944 10.867854,6.79423944 Z"></path>
            <path d="M6.72903097,0.0442183099 L6.72796018,0.0427887324 C6.72713274,0.042 6.7265,0.0409647887 6.72601327,0.0403239437 L6.72421239,0.0380070423 C6.71184956,0.022971831 6.69369469,0.0139507042 6.67432301,0.0131126761 C6.67315487,0.0131126761 6.67227876,0.0131126761 6.67120796,0.0131126761 C6.65295575,0.0131126761 6.63523894,0.0201619718 6.62234071,0.0335211268 L0.133752212,6.60597887 C0.0565575221,6.68307746 0.0141637168,6.78719014 0.0141637168,6.8984507 C0.0141637168,7.00946479 0.0568495575,7.11298592 0.134238938,7.18998592 L3.24782301,10.3438803 C3.26072124,10.3572394 3.27834071,10.3643873 3.29649558,10.3643873 C3.29785841,10.3643873 3.29922124,10.3643873 3.30058407,10.3643873 C3.32019912,10.3632535 3.33845133,10.3536901 3.35047345,10.337669 L4.67894248,8.63169014 C4.70065044,8.60398592 4.69811947,8.56464789 4.67353982,8.53916197 L3.24173894,7.09070423 C3.19102212,7.03973239 3.1635708,6.97145775 3.16332743,6.8984507 C3.16308407,6.82470423 3.19102212,6.75593662 3.24173894,6.70471831 L3.6560885,6.28447183 C3.67959735,6.26041549 3.68300442,6.22285211 3.66363274,6.19519718 L3.38113717,5.78367606 C3.267,5.61971831 3.30243363,5.38684507 3.4600354,5.26439437 L6.71501327,2.73512676 C6.73204867,2.72191549 6.74212389,2.70165493 6.74212389,2.67966901 L6.74275701,0.0862676056 C6.74275701,0.0711338028 6.73808407,0.0563450704 6.72903097,0.0442183099 Z"></path>
          </g>
          <path d="M7.30224779,8.18674648 L3.69799558,5.81561972 L5.28997788,8.13350704 C5.32404867,8.18674648 5.32069027,8.27740141 5.28287168,8.32847183 L2.43129204,11.9938099 C2.38101327,12.0602606 2.33886283,12.1322324 2.3745885,12.2064718 C2.39361947,12.2452676 2.44029646,12.2765211 2.4854646,12.2796761 C2.54177876,12.2793803 2.58495133,12.2546338 2.64418584,12.2087887 L7.22685398,8.64573944 C7.36703097,8.53738732 7.36323451,8.27483803 7.30224779,8.18674648 Z" id="Path"></path>
          <path d="M8.6254115,1.77750704 C8.60360619,1.73259859 8.55590708,1.70252817 8.50611504,1.70252817 C8.4614823,1.70252817 8.41981858,1.722 8.35576549,1.77154225 L3.77115044,5.33735211 C3.62586283,5.44989437 3.59296018,5.66452817 3.6979469,5.81561972 L7.30219912,8.18674648 C7.24987611,8.10915493 5.72511062,5.87048592 5.70968142,5.84780986 C5.67512389,5.7983169 5.67809292,5.70189437 5.71576549,5.65348592 L8.56729646,1.98696479 L8.56919469,1.98440141 C8.61562832,1.92430986 8.6619646,1.85366901 8.6254115,1.77750704 Z" id="Path"></path>
        </g>
      </g>
    </g>
  </g>
</svg>
