<svg width="80" height="80" viewBox="0 0 100 100" fill="none" xmlns="http://www.w3.org/2000/svg">
 <path d="M9.11206 59V42.2H13.1921V55.4H20.6801V59H9.11206Z" fill="#fff"></path>
 <path d="M31.1771 59L28.4651 54.896L27.2171 53.144L22.1771 46.256H26.7851L29.4011 50.168L30.7691 52.04L35.7371 59H31.1771ZM22.0571 59L27.1931 51.848L29.2571 54.32L26.5931 59H22.0571ZM30.4811 53.456L28.4411 51.008L30.9611 46.256H35.4971L30.4811 53.456Z" fill="#fff"></path>
 <path d="M38.2917 59V42.2H45.8517C46.9237 42.2 47.8917 42.432 48.7557 42.896C49.6357 43.36 50.3237 44 50.8197 44.816C51.3157 45.616 51.5637 46.528 51.5637 47.552C51.5637 48.608 51.3157 49.56 50.8197 50.408C50.3237 51.24 49.6437 51.896 48.7797 52.376C47.9157 52.856 46.9397 53.096 45.8517 53.096H42.1797V59H38.2917ZM47.6037 59L43.3317 51.416L47.5077 50.816L52.2597 59H47.6037ZM42.1797 49.976H45.4917C45.9077 49.976 46.2677 49.888 46.5717 49.712C46.8917 49.52 47.1317 49.256 47.2917 48.92C47.4677 48.584 47.5557 48.2 47.5557 47.768C47.5557 47.336 47.4598 46.96 47.2677 46.64C47.0757 46.304 46.7957 46.048 46.4277 45.872C46.0757 45.696 45.6437 45.608 45.1317 45.608H42.1797V49.976Z" fill="#fff"></path>
 <path d="M60.2666 59.24C58.9386 59.24 57.7546 58.952 56.7146 58.376C55.6906 57.8 54.8746 57.016 54.2666 56.024C53.6746 55.032 53.3786 53.896 53.3786 52.616C53.3786 51.336 53.6746 50.2 54.2666 49.208C54.8746 48.216 55.6906 47.432 56.7146 46.856C57.7546 46.28 58.9386 45.992 60.2666 45.992C61.5946 45.992 62.7706 46.28 63.7946 46.856C64.8346 47.432 65.6506 48.216 66.2426 49.208C66.8346 50.2 67.1306 51.336 67.1306 52.616C67.1306 53.896 66.8346 55.032 66.2426 56.024C65.6506 57.016 64.8346 57.8 63.7946 58.376C62.7706 58.952 61.5946 59.24 60.2666 59.24ZM60.2666 55.928C60.8426 55.928 61.3546 55.784 61.8026 55.496C62.2506 55.208 62.6026 54.816 62.8586 54.32C63.1146 53.824 63.2346 53.256 63.2186 52.616C63.2346 51.976 63.1146 51.408 62.8586 50.912C62.6026 50.4 62.2506 50 61.8026 49.712C61.3546 49.424 60.8426 49.28 60.2666 49.28C59.6906 49.28 59.1706 49.424 58.7066 49.712C58.2586 50 57.9066 50.4 57.6506 50.912C57.3946 51.408 57.2746 51.976 57.2906 52.616C57.2746 53.256 57.3946 53.824 57.6506 54.32C57.9066 54.816 58.2586 55.208 58.7066 55.496C59.1706 55.784 59.6906 55.928 60.2666 55.928Z" fill="#fff"></path>
 <path d="M75.6416 59.24C74.3136 59.24 73.1296 58.952 72.0896 58.376C71.0656 57.8 70.2496 57.016 69.6416 56.024C69.0496 55.032 68.7536 53.896 68.7536 52.616C68.7536 51.336 69.0496 50.2 69.6416 49.208C70.2496 48.216 71.0656 47.432 72.0896 46.856C73.1296 46.28 74.3136 45.992 75.6416 45.992C76.9696 45.992 78.1456 46.28 79.1696 46.856C80.2096 47.432 81.0256 48.216 81.6176 49.208C82.2096 50.2 82.5056 51.336 82.5056 52.616C82.5056 53.896 82.2096 55.032 81.6176 56.024C81.0256 57.016 80.2096 57.8 79.1696 58.376C78.1456 58.952 76.9696 59.24 75.6416 59.24ZM75.6416 55.928C76.2176 55.928 76.7296 55.784 77.1776 55.496C77.6256 55.208 77.9776 54.816 78.2336 54.32C78.4896 53.824 78.6096 53.256 78.5936 52.616C78.6096 51.976 78.4896 51.408 78.2336 50.912C77.9776 50.4 77.6256 50 77.1776 49.712C76.7296 49.424 76.2176 49.28 75.6416 49.28C75.0656 49.28 74.5456 49.424 74.0816 49.712C73.6336 50 73.2816 50.4 73.0256 50.912C72.7696 51.408 72.6496 51.976 72.6656 52.616C72.6496 53.256 72.7696 53.824 73.0256 54.32C73.2816 54.816 73.6336 55.208 74.0816 55.496C74.5456 55.784 75.0656 55.928 75.6416 55.928Z" fill="#fff"></path>
 <path d="M86.0726 59V43.04H89.9126V59H86.0726ZM83.8166 49.616V46.256H92.3846V49.616H83.8166Z" fill="#fff"></path>
 <path fill-rule="evenodd" clip-rule="evenodd" d="M76.5399 64C71.5099 73.5156 61.5123 80 50.0001 80C38.4879 80 28.4902 73.5156 23.4603 64H12.5185C18.1935 79.1867 32.834 90 50.0001 90C67.1662 90 81.8067 79.1867 87.4817 64H76.5399ZM22.4964 38C27.1257 27.4046 37.6982 20 50.0001 20C62.302 20 72.8745 27.4046 77.5038 38H88.1689C83.0718 21.7716 67.9107 10 50.0001 10C32.0895 10 16.9284 21.7716 11.8313 38H22.4964Z" fill="#fff"></path>
</svg>