<?xml version="1.0" encoding="UTF-8"?>
<svg xmlns="http://www.w3.org/2000/svg" xmlns:xlink="http://www.w3.org/1999/xlink" width="120px" height="30px" viewBox="0 0 120 30" version="1.1">
  <title>Group</title>
  <desc>Created with Sketch.</desc>
  <g id="Twitter-+-Site" stroke="none" stroke-width="1" fill="none" fill-rule="evenodd">
    <g id="Artboard" transform="translate(-76.000000, -80.000000)" fill="#FFFFFF" fill-opacity="0.5">
      <g id="Group" transform="translate(76.000000, 80.000000)">
        <polygon id="Path" points="57.1561738 10 60 21 57.8502394 21 55.9553789 13.0769231 52.3975251 21 50.5871195 21 47.0446211 13.1230769 45.0975522 21 43 21 45.8131153 10 47.6680517 10 51.4992322 18.5169231 55.3165929 10"></polygon>
        <path d="M68.0531556,14.3967321 L68.0531556,13.1747751 L70,13.1747751 L70,20.8399119 L68.0531556,20.8399119 L68.0531556,19.6032679 C67.5386221,20.4844869 66.4792035,21 65.1914244,21 C62.5002409,21 61,19.0789425 61,16.8538645 C61,14.7169084 62.4308656,13 64.9023607,13 C66.3216637,13 67.4952626,13.4949513 68.0531556,14.3967321 Z M63.0725871,16.9566734 C63.0725871,18.3666238 63.9397784,19.5738939 65.633692,19.5738939 C67.2654569,19.5738939 68.1528826,18.3989352 68.1528826,16.9992657 C68.1528826,15.5995961 67.2379958,14.4114191 65.5513088,14.4114191 C63.9166533,14.4114191 63.0725871,15.6040022 63.0725871,16.9566734 Z" id="Shape"></path>
        <path d="M74.9857494,21 L73,21 L73,13.1786738 L74.9857494,13.1786738 L74.9857494,14.9290684 C75.5105651,13.730168 76.5764128,13.0003374 77.7587224,13.0003374 C78.1813534,12.9944766 78.6016463,13.0650094 79,13.2086463 L78.5769042,14.6922855 C78.2338219,14.5991268 77.8808535,14.548802 77.5257985,14.542423 C76.0943489,14.542423 74.9857494,15.6409154 74.9857494,17.2579323 L74.9857494,21 Z" id="Path"></path>
        <path d="M80.000573,11.041155 C79.9946585,10.7575472 80.1016983,10.4841922 80.295934,10.2868711 C80.4901698,10.0895499 80.7540136,9.98612981 81.0239735,10.001498 C81.2993348,9.99208212 81.566306,10.1016919 81.7624525,10.3046936 C81.958599,10.5076953 82.0667197,10.7862865 82.061529,11.0753152 C82.061529,11.590688 81.7246419,12.1045756 81.0239735,12.1045756 C80.7507857,12.1171639 80.4849899,12.0095304 80.2906925,11.807635 C80.0963951,11.6057396 79.9912341,11.32791 80.000573,11.041155 Z M80.084087,13.0863089 L81.9907544,13.0863089 L81.9907544,18.7494692 C81.9907544,19.1014673 82.061529,19.3524702 82.3417963,19.3524702 C82.464087,19.3491264 82.5858409,19.3342137 82.7055777,19.3079135 L83,20.7634333 C82.5979411,20.9263573 82.1697466,21.0065335 81.7387969,20.999584 C80.939044,20.999584 80.084087,20.7485811 80.084087,18.8519496 L80.084087,13.0863089 Z" id="Shape"></path>
        <path d="M91.0546009,14.3967321 L91.0546009,13.1747751 L93,13.1747751 L93,20.8399119 L91.0546009,20.8399119 L91.0546009,19.6032679 C90.5386221,20.4844869 89.4792035,21 88.1914244,21 C85.5002409,21 84,19.0789425 84,16.8538645 C84,14.7169084 85.4323109,13 87.9023607,13 C89.3216637,13 90.4952626,13.4949513 91.0546009,14.3967321 Z M86.0725871,16.9566734 C86.0725871,18.3666238 86.9397784,19.5738939 88.6351373,19.5738939 C90.2669022,19.5738939 91.1543279,18.3989352 91.1543279,16.9992657 C91.1543279,15.5995961 90.2379958,14.4114191 88.5527541,14.4114191 C86.9180986,14.4114191 86.0725871,15.6040022 86.0725871,16.9566734 Z" id="Shape"></path>
        <path d="M97,10 L101.879508,10 C105.979261,10 108.029894,12.3 107.999671,15.5 C108.029894,18.8215385 105.769211,21 102.237651,21 L97,21 L97,10 Z M98.3464359,10.9753846 L98.3464359,20.04 L102.060846,20.04 C105.323422,20.04 106.565588,17.8 106.565588,15.4692308 C106.565588,12.8338462 105.009102,10.9753846 102.060846,10.9753846 L98.3464359,10.9753846 Z" id="Shape"></path>
        <path d="M116.142243,21 L110,21 L110,10 L115.534011,10 C117.655333,10 119.673284,10.4107118 119.643322,12.8488323 C119.643322,14.5701301 118.605133,15.0423717 117.50702,15.225423 C119.065052,15.3623269 119.999936,16.3821843 119.999936,18.028108 C120.013355,20.4969934 117.907015,21 116.142243,21 Z M115.682324,14.7993288 C117.803645,14.7993288 118.278546,13.9625227 118.278546,12.8949797 C118.278546,11.2967417 117.328745,10.9306391 115.682324,10.9306391 L111.276388,10.9306391 L111.276388,14.7993288 L115.682324,14.7993288 Z M115.74075,15.7222766 L111.276388,15.7222766 L111.276388,20.0647462 L115.939999,20.0647462 C117.246349,20.0647462 118.626107,19.6217312 118.626107,17.9311984 C118.620114,15.9883932 117.03212,15.7284296 115.74075,15.7284296 L115.74075,15.7222766 Z" id="Shape"></path>
        <path d="M45.7890293,0.153712746 C45.6637856,0.0495776819 45.5048137,-0.00497760705 45.3421578,0.000357338914 C44.898347,0.000357338914 44.3244537,0.307068153 44.016847,0.46042356 C43.9632836,0.489561087 43.9219633,0.511030844 43.892886,0.523299276 C43.376593,0.777979217 42.813393,0.923117161 42.2385431,0.949627307 C41.6478156,0.968029956 41.1381984,1.0033017 40.4786038,1.07231163 C36.5485828,1.48177057 34.8054777,4.48753654 33.1205271,7.40128927 C32.2022979,8.98391707 31.2565219,10.6217528 29.9572276,11.8915356 C29.6885367,12.152655 29.4027393,12.3954971 29.101744,12.6184402 C27.7580686,13.6213846 26.0700573,14.3314201 24.750868,14.837493 C23.4867725,15.3205625 22.1063679,15.7576254 20.7718748,16.1778192 C19.5475692,16.5627413 18.3982523,16.9277271 17.3376976,17.3218505 C16.8586881,17.4997428 16.4516065,17.6285614 16.0934971,17.7558463 C15.127826,18.0778927 14.4299718,18.3109929 13.4137982,19.00876 C13.0174293,19.2801991 12.6195299,19.5746415 12.3425308,19.7970068 C11.5366404,20.4433087 10.8234136,21.1977484 10.2229517,22.0390629 C9.70800206,22.8151441 9.11297747,23.5347657 8.44770861,24.1860386 C8.23345513,24.3961355 7.85239002,24.4927494 7.28155753,24.4927494 C6.6127806,24.4927494 5.80167814,24.3547295 4.94313384,24.2090419 C4.06010343,24.0556865 3.144935,23.9023311 2.36137942,23.9023311 C1.72321013,23.9023311 1.23654865,24.0050792 0.870787355,24.2182432 C0.870787355,24.2182432 0.258634557,24.5770948 0,25.0402282 L0.254043411,25.1552447 C0.64742564,25.3675895 1.01249913,25.6288232 1.34061463,25.9327566 C1.68065007,26.2483854 2.05971162,26.5189685 2.46850616,26.7378725 C2.5991052,26.7900321 2.71742041,26.8688983 2.81590287,26.9694392 C2.70877613,27.1227946 2.55114679,27.3298244 2.38739591,27.5460555 C1.48140977,28.7330264 0.953427983,29.4829343 1.25644362,29.8908597 C1.39762984,29.9660112 1.55573379,30.0035067 1.71555822,30 C3.68975099,30 4.74877533,29.4844679 6.09092034,28.8342409 C6.47963737,28.6456138 6.88059745,28.4508524 7.33971205,28.2514904 C8.12326763,27.9110414 8.96803849,27.3681632 9.86178158,26.7915469 C11.0462972,26.0247699 12.2706028,25.2411238 13.4566489,24.8592688 C14.4338503,24.5609076 15.4516162,24.4175765 16.4730318,24.4344743 C17.7325362,24.4344743 19.0486647,24.6031653 20.3219425,24.7672555 C21.2723097,24.8884063 22.254815,25.0141578 23.2189556,25.0739664 C23.5938992,25.0969697 23.9412959,25.1077046 24.27798,25.1077046 C24.7294267,25.1095702 25.180609,25.085505 25.6293073,25.0356275 L25.736434,24.9988222 C26.4128629,24.5816955 26.7296519,23.6876335 27.0372587,22.8242425 C27.234678,22.2675624 27.3999592,21.7676238 27.6570634,21.4440439 C27.6732514,21.428379 27.69065,21.4140211 27.7090964,21.4011044 C27.7346185,21.3867997 27.7666731,21.3925815 27.7856155,21.4149064 C27.7856155,21.4149064 27.7856155,21.4225741 27.7856155,21.4379097 C27.623395,24.8209299 26.2705373,26.9663721 24.8962543,28.8741133 L23.9780251,29.8601886 C23.9780251,29.8601886 25.2620156,29.8601886 25.9920078,29.5780147 C28.6579332,28.779033 30.671916,27.0185129 32.1364915,24.2105754 C32.4975482,23.4899912 32.8203977,22.7508122 33.1036929,21.9961233 C33.1281791,21.9332476 33.3607971,21.8166975 33.3378414,22.141811 C33.3378414,22.2384249 33.3240679,22.3442401 33.316416,22.4485218 L33.316416,22.4485218 C33.316416,22.5144646 33.3072337,22.581941 33.304173,22.6494174 C33.2659134,23.1094836 33.1511348,24.1170286 33.1511348,24.1170286 L33.9744803,23.6753651 C35.9639769,22.4147836 37.4943589,19.8813523 38.6513277,15.9355177 C39.1349284,14.2915477 39.4884466,12.6583126 39.8006446,11.2183054 C40.1740578,9.49612413 40.4969684,8.00857669 40.8719119,7.43349391 C41.4503963,6.53023056 42.3334268,5.91987604 43.1873799,5.32792417 L43.536307,5.08562263 C44.6075744,4.32958047 45.6788418,3.45698821 45.9145206,1.8314209 L45.9145206,1.7946156 C46.0981665,0.606111196 45.9527802,0.296333274 45.7890293,0.153712746 Z" id="Path"></path>
      </g>
    </g>
  </g>
</svg>
