<?xml version="1.0" encoding="UTF-8"?>
<svg xmlns="http://www.w3.org/2000/svg" xmlns:xlink="http://www.w3.org/1999/xlink" width="68px" height="46px" viewBox="0 0 68 46" version="1.1">
  <title>Group 2</title>
  <desc>Created with Sketch.</desc>
  <g id="Twitter-+-Site" stroke="none" stroke-width="1" fill="none" fill-rule="evenodd">
    <g id="Artboard" transform="translate(-222.000000, -131.000000)" fill="#FFFFFF" fill-opacity="0.5">
      <g id="Group-2" transform="translate(222.000000, 131.000000)">
        <path d="M47.0245595,5 C46.6006407,5 46.3016551,5.04273314 46,5.10460717 L46,5.14645003 L46.0485852,5.14645003 C46.2504004,5.47896728 46.6006407,5.70999332 46.8483716,6.00111284 C47.049653,6.33452037 47.2247731,6.66703761 47.4244527,7 C47.4490123,6.97996884 47.4730379,6.95815713 47.4730379,6.95815713 C47.8254138,6.75072335 48,6.41731582 48,5.91653684 C47.8489055,5.7700868 47.8254138,5.62541732 47.6994127,5.47896728 C47.5499199,5.27108836 47.2247731,5.16692633 47.0245595,5" id="Fill-3"></path>
        <path d="M16,42 L13.4319521,42 C13.3416506,37.479967 13.0913412,33.2296572 12.682212,29.2482445 L12.6596366,29.2482445 L8.75013615,42 L6.79479182,42 L2.9090549,29.2482445 L2.88608347,29.2482445 C2.59814842,33.0718711 2.4167533,37.3221809 2.341106,42 L0,42 C0.151294619,36.3110285 0.529927224,30.9781082 1.13589782,26 L4.31823358,26 L8.02297143,37.756299 L8.04594287,37.756299 L11.7732561,26 L14.8181593,26 C15.485123,31.8302354 15.8788059,37.1648079 16,42" id="Fill-4"></path>
        <path d="M28,30 C26.9638526,35.9171292 25.5972369,40.2171163 23.9005455,42.8995482 C22.5786726,44.9665161 21.1308136,46 19.5538286,46 C19.1334825,46 18.6154088,45.8665806 18,45.6018072 L18,44.1755002 C18.3006397,44.2217633 18.6530869,44.2465471 19.0589113,44.2465471 C19.7944189,44.2465471 20.3870639,44.0325804 20.838416,43.6054731 C21.3784685,43.0850136 21.6484948,42.5001162 21.6484948,41.8520201 C21.6484948,41.4092165 21.437733,40.5008907 21.0181718,39.1266297 L18.2252836,30 L20.7253817,30 L22.729385,36.8258681 C23.1799521,38.3756809 23.3675576,39.4574932 23.2925939,40.0741965 C24.3887908,36.9927456 25.1545194,33.6345424 25.5901723,30 L28,30" id="Fill-5"></path>
        <polyline id="Fill-6" points="63 42 56 42 56 26 58.3555025 26 58.3555025 40.031805 63 40.031805 63 42"></polyline>
        <path d="M44.6180703,38.7383125 C43.9799462,37.7192314 43.6602741,36.0838584 43.6602741,33.8289648 C43.6602741,29.8922846 44.8665686,27.9227337 47.2779377,27.9227337 C48.5387311,27.9227337 49.4639907,28.3937308 50.0557502,29.3349178 C50.6930609,30.3544026 51.0127331,31.9756497 51.0127331,34.1990628 C51.0127331,38.1672235 49.8064385,40.152111 47.3950695,40.152111 C46.1346828,40.152111 45.2090164,39.6815175 44.6180703,38.7383125 M54,42.2427409 L51.1042423,40.8257136 C51.3620949,40.6158434 51.6069328,40.3894258 51.8285884,40.1274916 C53.0580653,38.6931097 53.6734138,36.5701922 53.6734138,33.7595462 C53.6734138,28.5874571 51.6272682,26 47.5353836,26 C45.5282818,26 43.9640846,26.6558443 42.844012,27.9695509 C41.6141284,29.4055472 41,31.5203928 41,34.3152985 C41,37.0633871 41.5441747,39.0793516 42.6333375,40.3599632 C43.6293643,41.517478 45.1309285,42.0970425 47.138437,42.0970425 C47.887999,42.0970425 48.5757415,42.0054261 49.200851,41.8221933 L52.9718433,44 L54,42.2427409" id="Fill-7"></path>
        <path d="M40,37.4747881 C40,38.79662 39.5038027,39.88185 38.5146968,40.7308805 C37.5247688,41.5762895 36.1948613,42 34.5294964,42 C32.9718397,42 31.4622816,41.5123104 30,40.5445766 L30.6840699,39.2058446 C31.942446,39.8214923 33.0811922,40.1289138 34.1035971,40.1289138 C35.0626927,40.1289138 35.8133607,39.9200765 36.3564234,39.5072303 C36.8982528,39.0915675 37.2230216,38.511732 37.2230216,37.7761738 C37.2230216,36.8506903 36.5636177,36.0596031 35.3537513,35.3960717 C34.2367934,34.796117 32.0045221,33.5434952 32.0045221,33.5434952 C30.7950668,32.6799789 30.1886948,31.7532882 30.1886948,30.2266429 C30.1886948,28.9639615 30.6409044,27.9435153 31.5440904,27.166914 C32.449332,26.3891054 33.6172662,26 35.047482,26 C36.5257965,26 37.8700925,26.3862888 39.0807811,27.1556472 L38.465776,28.493172 C37.4298047,28.0634258 36.408222,27.8477479 35.4010277,27.8477479 C34.5837616,27.8477479 33.9539568,28.0396851 33.5149024,28.4259739 C33.0733813,28.8090436 32.8004111,29.3019641 32.8004111,29.9027236 C32.8004111,30.8257928 33.4742035,31.6265372 34.7181912,32.3029449 C35.8491264,32.9033021 38.136074,34.1800669 38.136074,34.1800669 C39.3800617,35.0419737 40,35.961019 40,37.4747881" id="Fill-8"></path>
        <path d="M65.7909843,20.8833531 C64.2667675,20.845781 63.0863743,20.9952697 62.0964064,21.4069633 C61.8107684,21.5192797 61.3542357,21.5192797 61.3151741,21.8746152 C61.4685723,22.0241039 61.4868825,22.267123 61.6211568,22.4737692 C61.8490162,22.8478907 62.2481771,23.3519155 62.6107177,23.6149198 C63.0106924,23.9142969 63.410667,24.212475 63.8301725,24.4742801 C64.5723432,24.9251445 65.4105404,25.1857505 66.1331803,25.6350161 C66.5534995,25.8968212 66.9709706,26.232971 67.3912898,26.5143615 C67.6000253,26.6642499 67.7322652,26.9076687 68,27 L68,26.943642 C67.8657257,26.7757669 67.8282916,26.5323481 67.6956449,26.3444879 C67.5056264,26.1586263 67.3147942,25.9891524 67.1239619,25.8028911 C66.5714028,25.0734341 65.8849763,24.4379071 65.1440262,23.9142969 C64.5340954,23.5014043 63.200304,22.940222 62.9537275,22.2503355 C62.9537275,22.2503355 62.9337898,22.2303504 62.9150728,22.2119641 C63.3341714,22.1739923 63.8301725,22.0241039 64.2297403,21.9105884 C64.8762914,21.7427134 65.4666915,21.7806851 66.1331803,21.6128101 C66.4383492,21.5372663 66.7431111,21.4433362 67.0490938,21.3514047 L67.0490938,21.1819308 C66.7044564,20.845781 66.45788,20.3961157 66.0961531,20.0783523 C65.1257161,19.2553649 64.0580319,18.4519629 62.9537275,17.7772651 C62.3625137,17.4031436 61.6008122,17.1609239 60.9721643,16.8419614 C60.7447118,16.729645 60.3642679,16.6740863 60.2304005,16.4862262 C59.8873907,16.0745326 59.6961515,15.5329358 59.4491682,15.0456984 C58.8974229,14.0180634 58.3631739,12.8773125 57.8879242,11.7905215 C57.5453213,11.0614642 57.335772,10.3324069 56.9166734,9.65850851 C54.9542341,6.47767623 52.8221209,4.55190971 49.5466417,2.66211642 C48.8419051,2.26840948 48.0041148,2.10053444 47.1097665,1.89468767 C46.6328893,1.87510225 46.1572328,1.83872932 45.6811693,1.82034301 C45.3760005,1.6888409 45.0708316,1.3331057 44.8047243,1.16483096 C43.71873,0.491731991 40.9205349,-0.967182035 40.1201787,0.959383884 C39.6058674,2.17607821 40.8818802,3.37278742 41.3201027,3.99032774 C41.6435817,4.4200079 42.0630872,4.90724521 42.2905397,5.39288371 C42.4240002,5.71104688 42.4622481,6.04839577 42.5961155,6.38454555 C42.9004706,7.20753294 43.1857017,8.12445042 43.5864902,8.89187916 C43.7952257,9.28478669 44.023492,9.69687994 44.2900062,10.0506166 C44.4438113,10.2576625 44.7095116,10.3499938 44.7668834,10.6877424 C44.501183,11.0614642 44.4804315,11.6226465 44.328254,12.0906981 C43.6430482,14.2047244 43.9091554,16.823575 44.8808131,18.3760194 C45.1847613,18.8436713 45.9094356,19.8729052 46.8806864,19.4791983 C47.7376006,19.1430485 47.5471753,18.0766423 47.7945655,17.1417382 C47.8515304,16.9159063 47.8132825,16.7676167 47.9272122,16.618128 L47.9272122,16.6560997 C48.1937264,17.1789105 48.4610543,17.6829354 48.7084445,18.2081444 C49.2996584,19.1238628 50.3270602,20.0783523 51.1847882,20.7138792 C51.6405071,21.0516278 52.0026408,21.6307967 52.5739169,21.8370432 L52.5739169,21.7806851 L52.5364829,21.7806851 C52.4217394,21.6128101 52.2508448,21.5372663 52.0982604,21.4069633 C51.7556575,21.0700141 51.3756205,20.6583206 51.1078857,20.2845988 C50.3083432,19.2373783 49.6027928,18.0766423 48.9757725,16.8795334 C48.6701967,16.298366 48.4040895,15.6628391 48.1562923,15.0832705 C48.0423626,14.8598368 48.0423626,14.5220882 47.8515304,14.4101715 C47.5650785,14.8214654 47.1472006,15.1772006 46.9380582,15.6808257 C46.5759245,16.4862262 46.5380835,17.4774883 46.4038092,18.5067222 C46.3281273,18.5263076 46.3663752,18.5067222 46.3281273,18.5438945 C45.7194172,18.3944058 45.5098679,17.7772651 45.2807878,17.254854 C44.7095116,15.9250439 44.6134852,13.7926312 45.1094863,12.2585731 C45.242133,11.866465 45.8150367,10.631784 45.5855497,10.2576625 C45.4703994,9.90072821 45.0899555,9.69687994 44.8808131,9.4150897 C44.6338298,9.0597542 44.365688,8.61168773 44.1960141,8.21798079 C43.7386677,7.17076031 43.5087738,6.01042404 43.0152141,4.96320356 C42.7865408,4.47596624 42.3857524,3.97074232 42.0630872,3.52267584 C41.7005466,3.01745192 41.3009788,2.66211642 41.0149338,2.06416152 C40.9205349,1.85791504 40.7870744,1.52096586 40.938845,1.29713247 C40.9762791,1.14724405 41.0535885,1.090886 41.206173,1.05291426 C41.4523425,0.847467192 42.157893,1.10887261 42.4048763,1.221189 C43.1100199,1.50098074 43.7004199,1.76438467 44.2900062,2.15649279 C44.5569272,2.34395325 44.8425653,2.69928875 45.1847613,2.79361853 L45.5855497,2.79361853 C46.1946668,2.92352184 46.8806864,2.82999146 47.4523695,2.9990656 C48.4610543,3.31682907 49.3749334,3.78448096 50.1944135,4.28970489 C52.6882535,5.842549 54.7450917,8.05050546 56.1346273,10.6877424 C56.3637074,11.1174225 56.4597339,11.5107298 56.6688763,11.9587962 C57.068851,12.8773125 57.5644452,13.8126163 57.9636061,14.7095487 C58.3631739,15.5888941 58.7448384,16.4862262 59.3169283,17.2168823 C59.6017526,17.6089904 60.7447118,17.8148372 61.259023,18.0206839 C61.63906,18.188559 62.2302738,18.3384474 62.5732837,18.5438945 C63.2206486,18.9364023 63.8667928,19.3860676 64.4771305,19.8169469 C64.7810787,20.0411799 65.7336125,20.5084321 65.7909843,20.8833531" id="Fill-9"></path>
        <path d="M64.5485804,42 L64.9521564,42 L64.9521564,40.339233 L65.4803026,40.339233 L65.4803026,40 L64,40 L64,40.339233 L64.5485804,40.339233 L64.5485804,42 Z M67.619609,42 L68,42 L68,40 L67.4278416,40 L66.962177,41.3632533 L66.455251,40 L65.9039198,40 L65.9039198,42 L66.2638766,42 L66.2638766,40.4778761 L66.2843108,40.4778761 L66.8152078,42 L67.089498,42 L67.619609,40.4778761 L67.619609,42 L67.619609,42 Z" id="Fill-10"></path>
      </g>
    </g>
  </g>
</svg>
