<?xml version="1.0" encoding="UTF-8"?>
<svg xmlns="http://www.w3.org/2000/svg" xmlns:xlink="http://www.w3.org/1999/xlink" width="70px" height="13px" viewBox="0 0 70 13" version="1.1">
  <title>openlitespeed-logo-light-1200x300</title>
  <desc>Created with Sketch.</desc>
  <g id="Website" stroke="none" stroke-width="1" fill="none" fill-rule="evenodd" fill-opacity="0.57">
    <g id="Artboard" transform="translate(-98.000000, -201.000000)" fill="#FFFFFF" fill-rule="nonzero">
      <g id="openlitespeed-logo-light-1200x300" transform="translate(98.000000, 200.906367)">
        <path d="M11.7350977,2.75948031 C11.7162099,2.7339305 11.6870373,2.71782442 11.6553419,2.71536646 C11.6235172,2.71284383 11.5924688,2.72448678 11.5698292,2.74693179 L11.0535188,3.26161485 C11.0157432,3.2991957 11.0106978,3.35863943 11.0414229,3.40217112 C11.7077362,4.34356828 12.0599425,5.44706116 12.0599425,6.59369764 C12.0599425,9.65915689 9.56209199,12.1530767 6.4917204,12.1530767 C6.27852082,12.1530767 6.05710632,12.1378115 5.79545816,12.1054053 C5.77954582,12.1032707 5.70942799,12.0922746 5.66557201,12.0851595 C5.44661552,12.0515243 5.24447695,12.0098684 5.04731908,11.9572811 C5.04731908,11.9572811 5.01633528,11.9493251 5.00960811,11.9474493 C5.00779695,11.9468024 5.00598579,11.9461556 5.00423931,11.9457675 C4.75578676,11.8757804 4.51354391,11.7892992 4.28352639,11.6885877 C4.05402635,11.5892992 3.8237501,11.4681478 3.59722554,11.3277856 L10.360038,7.75139493 C10.5749841,7.63722934 10.7056464,7.43690592 10.7093335,7.21575456 C10.7143788,6.99402106 10.5916726,6.78884641 10.3809311,6.66678949 L8.05798702,5.32274033 L11.4950541,1.88574163 C11.7418896,1.63936388 11.7222255,1.41769505 11.6628453,1.2762979 C11.5917572,1.10100683 11.4073422,0.978561807 11.2145828,0.978561807 C11.1107645,0.978561807 11.0144495,1.00650489 10.8927136,1.07164072 L2.64241999,5.43438328 C2.42637429,5.54816077 2.2950004,5.7491957 2.29079592,5.97267565 C2.28782044,6.19512067 2.41227311,6.39984253 2.62314406,6.51976491 L4.94958104,7.85844538 L2.43510668,10.3722229 C2.29525914,10.2208645 2.16304434,10.0616795 2.04124373,9.89796672 C1.52758538,9.20527591 1.18999781,8.43968729 1.03811898,7.6232578 C1.03604908,7.6118089 1.03397918,7.5999719 1.03255613,7.5881349 C1.03236207,7.58567694 1.03203865,7.58328367 1.03152118,7.58095508 L1.02835164,7.56387875 C1.00571212,7.429338 0.980420548,7.27293438 0.965866571,7.11691886 C0.962308932,7.0805023 0.961144614,7.04220993 0.960174349,7.00598742 C0.960174349,7.00514654 0.960174349,7.00443503 0.960109665,7.00352947 L0.951830069,6.86193826 C0.946461269,6.78211938 0.940445625,6.6915631 0.940445625,6.59945443 C0.940445625,6.21931213 0.978480018,5.8419512 1.05344917,5.47797966 C1.0884434,5.30773386 1.13171722,5.13975198 1.18210632,4.97862649 C1.18398217,4.97299906 1.18495243,4.96885935 1.18579333,4.96297319 C1.18637549,4.96019182 1.18747512,4.95443503 1.18851007,4.95068341 C1.18857476,4.95042468 1.18863944,4.95010126 1.18870412,4.94984253 C1.91607953,2.6076045 4.05072745,1.03399518 6.50038811,1.03399518 C6.83752289,1.03399518 7.18313132,1.07306375 7.58792592,1.15689298 L7.63689197,1.16711291 C7.76393201,1.19402106 7.90533198,1.23037293 8.06885399,1.27817371 C8.15559569,1.30359415 8.24246676,1.33477138 8.31918239,1.36232636 L8.3918229,1.38832895 C8.45780093,1.4110327 8.5273366,1.43528884 8.59027446,1.46155016 C8.59137409,1.46187358 8.59247373,1.46245573 8.59357336,1.46290851 C8.6024998,1.46633671 8.61084408,1.47015301 8.61957647,1.47416336 L8.62352221,1.47603917 C8.65437664,1.49014007 8.6900824,1.48916983 8.72016062,1.47319311 L9.53363088,1.04266271 C9.56940132,1.02383994 9.5917821,0.986647189 9.59184679,0.946155598 C9.59184679,0.90572869 9.56946601,0.868600617 9.53369557,0.849648483 C8.60172359,0.355017176 7.55273764,0.0936329588 6.50025874,0.0936329588 C2.91603475,0.0936329588 0,3.00941562 0,6.59363296 C0,8.04634965 0.477047011,9.42545702 1.37932888,10.581796 C1.49828338,10.7341246 1.62978664,10.8867766 1.77066913,11.0365825 L1.50559271,11.3019124 C1.25940411,11.546479 1.27783914,11.7676951 1.33670189,11.9103212 C1.40934241,12.0859357 1.59427494,12.2084454 1.7865168,12.2084454 C1.88845932,12.2084454 1.98749104,12.1800495 2.1074805,12.1160133 L2.65923792,11.8235812 C2.84074218,11.9572811 3.02399291,12.0790146 3.20491501,12.186065 C4.20939814,12.7798555 5.34894216,13.093633 6.50019405,13.093633 C10.084224,13.093633 13,10.1775916 13,6.59350359 C13,5.20805728 12.5625398,3.88224874 11.7350977,2.75948031 Z" id="Path"></path>
        <path d="M1.09721055,12.093633 C1.0639055,12.093633 1.01956605,12.0650175 1.00758969,12.0357888 C0.998102792,12.0122832 0.978119761,11.9632281 1.09337543,11.8469947 L4.78175859,8.11274092 C4.8463502,8.04747035 4.87777133,7.95351614 4.86579497,7.8618103 C4.85388589,7.77003633 4.79938672,7.68766458 4.7201947,7.64160727 L2.17151716,6.15659943 C2.08223271,6.10509154 2.02988659,6.02605828 2.03096311,5.94504918 C2.03237605,5.8647214 2.08754806,5.78745957 2.17824545,5.73908576 L10.7604528,1.14357381 C10.8422016,1.09942419 10.8800819,1.09363296 10.9040346,1.09363296 C10.9380125,1.09363296 10.9795933,1.11993196 10.991166,1.14888811 C11.0024023,1.1760047 11.0224526,1.22431038 10.9065914,1.34129324 L7.22661856,5.06777991 C7.16216151,5.13311862 7.1306731,5.22673217 7.14251489,5.31836988 C7.15435669,5.41014385 7.20865402,5.49244746 7.2875769,5.53864104 L9.83181377,7.02923571 C9.91968528,7.08087986 9.97108944,7.15936807 9.96920552,7.23962772 C9.96785986,7.32118187 9.9132934,7.39851184 9.82333612,7.44695378 L1.23971581,12.0444416 C1.15870716,12.0880461 1.12102871,12.093633 1.09721055,12.093633 Z" id="Path"></path>
        <g id="Group" transform="translate(15.000000, 3.093633)">
          <path d="M3.11466,0.0510769231 C2.20974,0.0510769231 1.4586,0.350892308 0.882,0.942215385 C0.31098,1.52787692 0.02142,2.29544615 0.02142,3.22363077 C0.02142,4.15181538 0.31374,4.92227692 0.89022,5.5136 C1.46136,6.09926154 2.20974,6.39618462 3.1146,6.39618462 C4.01958,6.39618462 4.77072,6.09643077 5.34708,5.50516923 C5.92362,4.91938462 6.216,4.15175385 6.216,3.22363077 C6.216,2.29556923 5.92362,1.52504615 5.34696,0.933538462 C4.76478,0.347876923 4.01376,0.0510769231 3.11466,0.0510769231 Z M5.02296,5.18030769 C4.53018,5.67470769 3.88806,5.92547692 3.1146,5.92547692 C2.34672,5.92547692 1.70748,5.66916923 1.2147,5.16363077 C0.72726,4.66393846 0.48018,4.01113846 0.48018,3.22356923 C0.48018,2.43612308 0.73008,1.78055385 1.22298,1.27501538 C1.71588,0.769476923 2.35236,0.513169231 3.1146,0.513169231 C3.8877,0.513169231 4.5297,0.769538462 5.02272,1.27501538 C5.5101,1.77507692 5.75724,2.43064615 5.75724,3.22350769 C5.75724,4.02221538 5.51016,4.68061538 5.02296,5.18030769 Z" id="Shape"></path>
          <path d="M8.73474,2.63655385 C8.19168,2.63655385 7.73958,2.8392 7.38972,3.23913846 L7.38972,2.71821538 L7.38972,2.68744615 L7.35972,2.68744615 L6.96084,2.68744615 L6.93084,2.68744615 L6.93084,2.71821538 L6.93084,7.92523077 L6.93084,7.956 L6.96084,7.956 L7.35972,7.956 L7.38972,7.956 L7.38972,7.92523077 L7.38972,5.76344615 C7.75236,6.16652308 8.20452,6.37076923 8.73474,6.37076923 C9.2448,6.37076923 9.68178,6.18781538 10.03344,5.82713846 C10.3797,5.472 10.5552,5.02670769 10.5552,4.50369231 C10.5552,3.98061538 10.37688,3.53243077 10.02516,3.17163077 C9.6789,2.81661538 9.24474,2.63655385 8.73474,2.63655385 Z M9.70062,5.50276923 C9.43812,5.772 9.11316,5.90855385 8.73474,5.90855385 C8.3619,5.90855385 8.03694,5.76916923 7.7688,5.49433846 C7.50078,5.21932308 7.36488,4.88603077 7.36488,4.50363077 C7.36488,4.11544615 7.50078,3.77932308 7.7688,3.50449231 C8.0313,3.23526154 8.35632,3.09870769 8.73474,3.09870769 C9.10764,3.09870769 9.4326,3.23809231 9.70062,3.51298462 C9.96864,3.788 10.10454,4.12129231 10.10454,4.50369231 C10.10454,4.89175385 9.96864,5.22787692 9.70062,5.50276923 Z" id="Shape"></path>
          <path d="M14.04876,3.12793846 C13.70844,2.79624615 13.27188,2.62793846 12.75132,2.62793846 C12.22482,2.62793846 11.78232,2.808 11.43612,3.16307692 C11.09544,3.51255385 10.92264,3.96356923 10.92264,4.50363077 C10.92264,5.03821538 11.09814,5.48916923 11.44422,5.84387692 C11.78478,6.19901538 12.22464,6.3792 12.75138,6.3792 C12.97122,6.3792 13.17204,6.34972308 13.34832,6.29150769 C13.80792,6.14024615 14.15334,5.84498462 14.37486,5.41390769 L14.38962,5.38504615 L14.40438,5.35630769 L14.37564,5.34276923 L14.0169,5.17378462 L13.99284,5.1624 L13.97892,5.18553846 L13.965,5.20867692 C13.78536,5.50676923 13.5807,5.70676923 13.3566,5.80307692 C13.17774,5.87864615 12.97404,5.91698462 12.7515,5.91698462 C12.3189,5.91698462 11.97492,5.78104615 11.72922,5.51286154 C11.50392,5.26123077 11.3844,4.91667692 11.37408,4.48873846 L14.5419,4.48873846 L14.5719,4.48873846 L14.5719,4.45796923 L14.5719,4.4272 C14.57178,3.89784615 14.3958,3.46067692 14.04876,3.12793846 Z M11.4465,4.03507692 C11.66664,3.408 12.10548,3.09009231 12.75144,3.09009231 C13.07286,3.09009231 13.3614,3.1832 13.60902,3.36676923 C13.84404,3.53907692 13.99488,3.76375385 14.05806,4.03507692 L11.4465,4.03507692 Z" id="Shape"></path>
          <path d="M17.6385,3.03747692 C17.40162,2.77698462 17.05866,2.64492308 16.61934,2.64492308 C16.19586,2.64492308 15.88578,2.75550769 15.69576,2.97390769 L15.69576,2.71809231 L15.69576,2.68732308 L15.66576,2.68732308 L15.26694,2.68732308 L15.23694,2.68732308 L15.23694,2.71809231 L15.23694,6.28067692 L15.23694,6.31144615 L15.26694,6.31144615 L15.66576,6.31144615 L15.69576,6.31144615 L15.69576,6.28067692 L15.69576,4.12215385 C15.69576,3.80609231 15.77682,3.55470769 15.93666,3.37489231 C16.08972,3.19710769 16.31928,3.10713846 16.61928,3.10713846 C17.23518,3.10713846 17.53458,3.45021538 17.53458,4.15606154 L17.53458,6.28049231 L17.53458,6.31126154 L17.56458,6.31126154 L17.9634,6.31126154 L17.9934,6.31126154 L17.9934,6.28049231 L17.9934,4.12209231 C17.99346,3.66184615 17.874,3.29692308 17.6385,3.03747692 Z" id="Path"></path>
        </g>
        <g id="Group" transform="translate(34.000000, 3.093633)">
          <path d="M16.0060569,3.16129231 C15.8158627,3.04529231 15.5866451,2.9264 15.3245431,2.80775385 C14.9101157,2.6176 14.6305686,2.46498462 14.4938647,2.35409231 C14.2572314,2.14726154 14.1368176,1.90129231 14.1368176,1.62363077 C14.1368176,1.31267692 14.2514569,1.05821538 14.4775137,0.867384615 C14.6887392,0.686461538 14.9581961,0.594769231 15.278651,0.594769231 C15.5837275,0.594769231 15.8345843,0.655938462 16.0244745,0.776615385 C16.1763745,0.864615385 16.3079118,1.0008 16.4164725,1.18190769 L16.4302706,1.20492308 L16.4546451,1.19421538 L16.7812392,1.05009231 L16.8118137,1.03655385 L16.7956451,1.00695385 C16.5007804,0.467692308 15.9904353,0.194276923 15.2785902,0.194276923 C14.848602,0.194276923 14.4812216,0.328061538 14.1866608,0.591876923 C13.8855353,0.850646154 13.732602,1.19790769 13.732602,1.62363077 C13.732602,2.04923077 13.8826176,2.39649231 14.1785157,2.65563077 C14.3524196,2.81483077 14.6818706,3.00486154 15.1572647,3.22 C15.4062373,3.33212308 15.6138765,3.4344 15.7745902,3.524 C15.9331157,3.61261538 16.0522529,3.69390769 16.128598,3.76553846 C16.4167765,4.02424615 16.5626588,4.35304615 16.5626588,4.7432 C16.5626588,5.15575385 16.439449,5.47304615 16.1964333,5.68633846 C15.9577333,5.89507692 15.6235412,6.00086154 15.2031569,6.00086154 C14.4580627,6.00086154 14.0020588,5.65335385 13.8090686,4.93846154 L13.800498,4.90683077 L13.7699235,4.91741538 L13.4266137,5.03612308 L13.3988961,5.04572308 L13.4074059,5.07421538 C13.6727294,5.96055385 14.2769255,6.40996923 15.2031569,6.40996923 C15.5008784,6.40996923 15.7635882,6.36941538 15.983749,6.28941538 C16.6361471,6.04252308 16.9668745,5.52233846 16.9669353,4.74313846 C16.9669353,4.25655385 16.8005078,3.84418462 16.472151,3.51747692 C16.3542294,3.39809231 16.1973451,3.27821538 16.0060569,3.16129231 Z" id="Path"></path>
          <path d="M19.763902,2.72886154 C19.1945353,2.72886154 18.7263745,2.94898462 18.3709078,3.38350769 L18.3709078,2.81052308 L18.3709078,2.77975385 L18.3405157,2.77975385 L17.9973275,2.77975385 L17.9669353,2.77975385 L17.9669353,2.81052308 L17.9669353,7.956 L17.9669353,7.98676923 L17.9973275,7.98676923 L18.3405157,7.98676923 L18.3709078,7.98676923 L18.3709078,7.956 L18.3709078,5.74418462 C18.7410235,6.18049231 19.2093059,6.4016 19.763902,6.4016 C20.2722412,6.4016 20.7077,6.22172308 21.0581216,5.86695385 C21.402951,5.51778462 21.5777667,5.07987692 21.5777667,4.56529231 C21.5777667,4.05070769 21.4000941,3.60984615 21.0497333,3.25501538 C20.7047824,2.90584615 20.2721804,2.72886154 19.763902,2.72886154 Z M19.763902,6.00086154 C19.3777392,6.00086154 19.041298,5.85846154 18.7639392,5.5776 C18.4865196,5.29667692 18.3458039,4.956 18.3458039,4.56516923 C18.3458039,4.16861538 18.4864588,3.82510769 18.7639392,3.54424615 C19.0358275,3.26898462 19.3722686,3.12941538 19.763902,3.12941538 C20.1500647,3.12941538 20.4865667,3.27181538 20.7639863,3.55267692 C21.0413451,3.8336 21.1820608,4.17433846 21.1820608,4.56510769 C21.1820608,4.96166154 21.0414059,5.30516923 20.7639863,5.58603077 C20.492098,5.86129231 20.1556569,6.00086154 19.763902,6.00086154 Z" id="Shape"></path>
          <path d="M25.693449,3.21175385 C25.3544549,2.88566154 24.9192392,2.72024615 24.3999588,2.72024615 C23.8749039,2.72024615 23.4338529,2.89723077 23.0890235,3.24633846 C22.7497863,3.58984615 22.5777667,4.03353846 22.5777667,4.56510769 C22.5777667,5.0912 22.7525824,5.53489231 23.097351,5.88381538 C23.4365275,6.23286154 23.8748431,6.40996923 24.3999588,6.40996923 C24.6195118,6.40996923 24.8199176,6.38092308 24.9954627,6.32375385 C25.4532294,6.17507692 25.7971471,5.8848 26.0177333,5.46110769 L26.0326863,5.43230769 L26.0035706,5.41876923 L25.6936922,5.27464615 L25.6692569,5.26326154 L25.6552157,5.2864 C25.4697627,5.59009231 25.2576255,5.79415385 25.0245784,5.89304615 C24.8396725,5.97015385 24.6294196,6.00929231 24.4000196,6.00929231 C23.9530118,6.00929231 23.5970588,5.86996923 23.3420686,5.5952 C23.1030039,5.33169231 22.9790647,4.96984615 22.9736549,4.51956923 L26.1835529,4.51956923 L26.2139451,4.51956923 L26.2139451,4.4888 C26.2138235,3.96812308 26.0387647,3.53852308 25.693449,3.21175385 Z M23.0351078,4.12738462 C23.2580039,3.45944615 23.7169863,3.12086154 24.399898,3.12086154 C24.7321451,3.12086154 25.0303529,3.21587692 25.2863765,3.40326154 C25.5417314,3.58806154 25.701351,3.83156923 25.7613451,4.12738462 L23.0351078,4.12738462 Z" id="Shape"></path>
          <path d="M30.3296275,3.21175385 C29.9906333,2.88566154 29.5554176,2.72024615 29.0361373,2.72024615 C28.5110824,2.72024615 28.0699706,2.89723077 27.725202,3.24633846 C27.3859647,3.58984615 27.2139451,4.03353846 27.2139451,4.56510769 C27.2139451,5.09126154 27.3887608,5.53489231 27.7335902,5.88381538 C28.0727059,6.23286154 28.5110216,6.40996923 29.0361373,6.40996923 C29.2556902,6.40996923 29.4560961,6.38092308 29.6316412,6.32375385 C30.0894078,6.17507692 30.4333255,5.8848 30.6539118,5.46110769 L30.6688647,5.43230769 L30.639749,5.41876923 L30.3298706,5.27464615 L30.3054353,5.26326154 L30.2913333,5.2864 C30.1059412,5.59009231 29.8938039,5.79415385 29.6608176,5.89304615 C29.4759118,5.97015385 29.2656588,6.00929231 29.036198,6.00929231 C28.5891902,6.00929231 28.2332373,5.86996923 27.9782471,5.5952 C27.7391824,5.33169231 27.6152431,4.96984615 27.6098333,4.51956923 L30.8197922,4.51956923 L30.8501843,4.51956923 L30.8501843,4.4888 C30.850002,3.96818462 30.6749431,3.53852308 30.3296275,3.21175385 Z M27.6712863,4.12738462 C27.8941824,3.45944615 28.3531647,3.12086154 29.0360765,3.12086154 C29.3683235,3.12086154 29.6665314,3.21587692 29.9225549,3.40326154 C30.1779098,3.58806154 30.3375294,3.83156923 30.3975235,4.12738462 L27.6712863,4.12738462 Z" id="Shape"></path>
          <path d="M35.4140294,0.00769230769 L35.0707804,0.00769230769 L35.0403882,0.00769230769 L35.0403882,0.0384615385 L35.0403882,3.36473846 C34.6607294,2.94270769 34.1981,2.7288 33.664049,2.7288 C33.155649,2.7288 32.7201902,2.90867692 32.3698902,3.26344615 C32.0250608,3.61255385 31.8501843,4.05052308 31.8501843,4.56516923 C31.8501843,5.08006154 32.0278569,5.52086154 32.3782784,5.87544615 C32.7229863,6.22455385 33.1555882,6.4016 33.664049,6.4016 C34.2128098,6.4016 34.6755,6.18855385 35.0403882,5.76818462 L35.0403882,6.31144615 L35.0403882,6.34221538 L35.0707804,6.34221538 L35.4140294,6.34221538 L35.4444216,6.34221538 L35.4444216,6.31144615 L35.4444216,0.0384615385 L35.4444216,0.00769230769 L35.4140294,0.00769230769 Z M33.664049,3.12941538 C34.0502725,3.12941538 34.3867137,3.27181538 34.6640725,3.55267692 C34.9414922,3.8336 35.0822078,4.17427692 35.0822078,4.56510769 C35.0822078,4.96166154 34.9415529,5.30516923 34.6640725,5.58603077 C34.3922451,5.86129231 34.0558039,6.0008 33.664049,6.0008 C33.2778863,6.0008 32.9414451,5.8584 32.6640863,5.57753846 C32.3866667,5.29661538 32.245951,4.95593846 32.245951,4.56510769 C32.245951,4.16855385 32.3866059,3.82504615 32.6640863,3.54418462 C32.9359137,3.26898462 33.2724157,3.12941538 33.664049,3.12941538 Z" id="Shape"></path>
          <polygon id="Path" points="0.418439216 5.93310769 0.418439216 0.258892308 0.418439216 0.228123077 0.388047059 0.228123077 0.0531254902 0.228123077 0.0227333333 0.228123077 0.0227333333 0.258892308 0.0227333333 6.31144615 0.0227333333 6.34221538 0.0531254902 6.34221538 2.73967059 6.34221538 2.77006275 6.34221538 2.77006275 6.31144615 2.77006275 5.96387692 2.77006275 5.93310769 2.73967059 5.93310769"></polygon>
          <path d="M3.51120588,1.59286154 C3.30587647,1.63015385 3.20448824,1.73446154 3.20448824,1.90338462 C3.21056667,1.99729231 3.24168824,2.07236923 3.29712353,2.12855385 C3.37243529,2.18615385 3.4433098,2.21384615 3.5111451,2.21384615 C3.71179412,2.21384615 3.81786275,2.10646154 3.81786275,1.90332308 L3.81701176,1.89606154 C3.7688098,1.69489231 3.66596275,1.59286154 3.51120588,1.59286154 Z" id="Path"></path>
          <polygon id="Path" points="3.8004549 2.77969231 3.77006275 2.77969231 3.77006275 2.81046154 3.77006275 6.31144615 3.77006275 6.34221538 3.8004549 6.34221538 4.14370392 6.34221538 4.17409608 6.34221538 4.17409608 6.31144615 4.17409608 2.81046154 4.17409608 2.77969231 4.14370392 2.77969231"></polygon>
          <polygon id="Path" points="6.4725098 2.77963077 6.4725098 1.27606154 6.4725098 1.24529231 6.44211765 1.24529231 6.09886863 1.24529231 6.06847647 1.24529231 6.06847647 1.27606154 6.06847647 2.77963077 5.20448824 2.77963077 5.17409608 2.77963077 5.17409608 2.8104 5.17409608 3.15796923 5.17409608 3.18873846 5.20448824 3.18873846 6.06847647 3.18873846 6.06847647 6.31132308 6.06847647 6.34209231 6.09886863 6.34209231 6.44211765 6.34209231 6.4725098 6.34209231 6.4725098 6.31132308 6.4725098 3.18873846 7.73226471 3.18873846 7.76265686 3.18873846 7.76265686 3.15796923 7.76265686 2.8104 7.76265686 2.77963077 7.73226471 2.77963077"></polygon>
          <path d="M11.8783392,3.21181538 C11.5393451,2.88572308 11.1041294,2.72030769 10.5849098,2.72030769 C10.0597941,2.72030769 9.61874314,2.89729231 9.27391373,3.2464 C8.93467647,3.58990769 8.76265686,4.0336 8.76265686,4.56510769 C8.76265686,5.0912 8.93747255,5.53483077 9.28230196,5.88375385 C9.62147843,6.2328 10.0597941,6.40990769 10.584849,6.40990769 C10.8042804,6.40990769 11.0046863,6.38086154 11.1803529,6.32363077 C11.6382412,6.17489231 11.9822196,5.88467692 12.2026843,5.46104615 L12.2176373,5.43224615 L12.1885216,5.41870769 L11.8785824,5.27458462 L11.8542078,5.2632 L11.8401059,5.28633846 C11.6545314,5.59015385 11.4423941,5.79421538 11.2095294,5.89292308 C11.0247451,5.97003077 10.8144922,6.00916923 10.5849098,6.00916923 C10.1378412,6.00916923 9.78182745,5.86984615 9.52695882,5.59507692 C9.28789412,5.33169231 9.1639549,4.96984615 9.1585451,4.51950769 L12.3685039,4.51950769 L12.3988961,4.51950769 L12.3988961,4.48873846 C12.3987137,3.96824615 12.2235941,3.53858462 11.8783392,3.21181538 Z M9.21993725,4.12738462 C9.44283333,3.45944615 9.90181569,3.12086154 10.5847275,3.12086154 C10.9169137,3.12086154 11.2151216,3.21587692 11.4712059,3.40326154 C11.7265608,3.58812308 11.8862412,3.83156923 11.9462353,4.12738462 L9.21993725,4.12738462 Z" id="Shape"></path>
        </g>
      </g>
    </g>
  </g>
</svg>
