<svg xmlns="http://www.w3.org/2000/svg" width="1766.863" height="471" viewBox="0 0 1766.863 471"><g transform="translate(0)"><g transform="translate(-0.909 -0.177)"><path d="M299.986,23.032Q266.767.2,213.291.177H75.269q-16.394,0-18.114,16.385L1.085,368.521a11.527,11.527,0,0,0,2.587,9.492,10.592,10.592,0,0,0,8.625,4.311H77.856q17.248,0,18.979-16.387l15.525-94.885a16.754,16.754,0,0,1,6.041-11.217,26.61,26.61,0,0,1,12.938-5.616A90.178,90.178,0,0,1,146,252.935q6.894,0,16.393.862,9.48.862,12.076.854,74.181,0,116.456-41.834Q333.185,170.985,333.2,96.791,333.2,45.9,299.986,23.032Zm-71.165,105.68q-4.327,30.2-22.428,39.68-18.118,9.5-51.756,9.484l-28.469.865,14.668-92.3q1.716-9.48,11.211-9.484h16.4q34.488,0,50.032,9.917,15.52,9.927,10.347,41.842Z" transform="translate(0 0)" fill="#003087"/><path d="M721.189.177h-63.83q-9.512,0-11.214,9.49L590.07,368.521l-.865,1.724a12.167,12.167,0,0,0,3.457,8.2,11.054,11.054,0,0,0,8.622,3.879h56.94q16.366,0,18.117-16.387L732.411,13.11v-.857q0-12.075-11.222-12.076Z" transform="translate(1035.361)" fill="#009cde"/><path d="M560.026,58.2a12.248,12.248,0,0,0-3.444-8.19q-3.461-3.88-7.765-3.887H482.393c-6.339,0-11.512,2.89-15.528,8.625L375.426,189.325l-37.953-129.4q-4.331-13.8-18.979-13.806H253.789a10.177,10.177,0,0,0-7.757,3.887,12.164,12.164,0,0,0-3.451,8.19q0,1.74,16.82,50.9,16.817,49.177,36.231,106.115T315.9,275.585Q245.162,372.208,245.167,379.1q0,11.225,11.214,11.217h66.424q9.488,0,15.528-8.622L558.307,64.236c1.144-1.144,1.719-3.148,1.719-6.038Z" transform="translate(425.326 80.86)" fill="#003087"/><path d="M780.282,49.974H714.717q-12.083,0-14.655,28.469-22.453-34.488-81.957-34.509-62.11,0-105.672,46.586T468.872,200.077q0,50.906,29.755,81.084,29.762,30.213,79.8,30.193,25.008,0,50.889-10.352t40.55-27.6a73.99,73.99,0,0,1-1.727,7.76,46.818,46.818,0,0,0-1.727,10.352q0,13.819,11.217,13.8h59.527q16.366,0,18.969-16.387L791.5,63.777a11.624,11.624,0,0,0-2.589-9.49,10.643,10.643,0,0,0-8.627-4.314ZM667.71,219.916q-22,21.567-53.051,21.563-25.028,0-40.545-13.8-15.532-13.78-15.53-37.956,0-31.9,21.568-53.913,21.543-22,53.486-22,24.13,0,40.11,14.233,15.947,14.234,15.963,39.256,0,31.051-22,52.616Z" transform="translate(823.583 77.008)" fill="#009cde"/><path d="M425.22,49.974H359.661q-12.095,0-14.668,28.469Q321.7,43.954,263.041,43.933q-62.111,0-105.674,46.586T113.805,200.077q0,50.906,29.763,81.084,29.762,30.213,79.792,30.193,24.142,0,50.032-10.352T314.8,273.4a58.263,58.263,0,0,0-3.452,18.112q0,13.819,11.214,13.8h59.521q16.378,0,18.979-16.387L436.429,63.777a11.632,11.632,0,0,0-2.587-9.49,10.63,10.63,0,0,0-8.622-4.314ZM312.645,220.343q-22,21.16-53.913,21.136-25.032,0-40.115-13.8-15.1-13.78-15.1-37.956,0-31.9,21.568-53.913,21.551-22,53.483-22,24.142,0,40.115,14.233,15.947,14.234,15.957,39.256,0,31.917-22,53.043Z" transform="translate(198.69 77.008)" fill="#003087"/><path d="M655.051,23.032Q621.836.2,568.359.177H431.2q-17.264,0-18.979,16.385L356.15,368.519a11.518,11.518,0,0,0,2.587,9.492,10.582,10.582,0,0,0,8.625,4.311h70.733q10.35,0,13.8-11.211l15.53-100.061a16.751,16.751,0,0,1,6.038-11.217,26.609,26.609,0,0,1,12.941-5.616,90.127,90.127,0,0,1,14.665-1.284q6.894,0,16.385.862c6.325.575,10.362.854,12.076.854q74.193,0,116.459-41.834T688.261,96.789q0-50.886-33.209-73.757ZM566.631,164.94q-18.98,12.937-56.932,12.936l-27.607.865,14.668-92.3q1.709-9.48,11.211-9.484h15.522q18.972,0,30.2,1.722,11.2,1.74,21.563,10.782,10.358,9.061,10.352,26.314,0,36.229-18.979,49.17Z" transform="translate(624.89 0)" fill="#009cde"/></g></g></svg>