<?xml version="1.0" encoding="UTF-8"?>
<svg xmlns="http://www.w3.org/2000/svg" xmlns:xlink="http://www.w3.org/1999/xlink" width="24px" height="14px" viewBox="0 0 24 14" version="1.1">
  <title>php-logo (1) 2</title>
  <desc>Created with Sketch.</desc>
  <g id="Website" stroke="none" stroke-width="1" fill="none" fill-rule="evenodd" fill-opacity="0.572016">
    <g id="Artboard" transform="translate(-189.000000, -271.000000)" fill="#FFFFFF" fill-rule="nonzero">
      <g id="php-logo-(1)-2" transform="translate(189.000000, 271.000000)">
        <g id="php-logo-(1)">
          <path d="M1.84051759,3 L5.28987922,3 C6.30229746,3.01013131 7.03593035,3.35806952 7.49077788,4.0432357 C7.94562541,4.72840188 8.09570324,5.66424568 7.94125421,6.85076709 C7.88127165,7.39293703 7.74819292,7.92468619 7.54226089,8.44630404 C7.3448284,8.9679219 7.07041425,9.43830426 6.71853273,9.85774059 C6.28942671,10.3894898 5.83045082,10.7270072 5.34136223,10.8702929 C4.85227364,11.0135786 4.3459431,11.0850767 3.82261345,11.0850767 L2.27812317,11.0850767 L1.78903458,14 L0,14 L1.84051759,3 L1.84051759,3 M3.34639562,4.74895397 L2.57415047,9.35146444 C2.62563348,9.36159575 2.67711649,9.36680614 2.7285995,9.36680614 C2.78858206,9.36680614 2.84880747,9.36680614 2.90879003,9.36680614 C3.73251819,9.37693745 4.41903926,9.27996632 4.96811041,9.07531381 C5.51718157,8.86052999 5.88630503,8.113997 6.07499512,6.83542538 C6.22944414,5.76150628 6.07499512,5.14262783 5.61164803,4.9790795 C5.1568005,4.81553117 4.58635904,4.73882266 3.89983797,4.74895397 C3.79687195,4.75908529 3.69827713,4.76429568 3.60381066,4.76429568 C3.51808659,4.76429568 3.42799133,4.76429568 3.33352486,4.76429568 L3.34639562,4.74895397" id="Shape"></path>
          <path d="M10.8158073,0 L12.5559559,0 L12.0641747,2.92618384 L13.6277865,2.92618384 C14.4852511,2.94670731 15.1240669,3.16119199 15.544472,3.56963788 C15.9732042,3.97808378 16.099302,4.75450675 15.9227651,5.89832869 L15.0779104,11 L13.3125422,11 L14.1195677,6.1281337 C14.2035535,5.61735954 14.178334,5.25487465 14.043909,5.04038997 C13.9094841,4.82590529 13.6194593,4.71866295 13.1738347,4.71866295 L11.77415,4.70334262 L10.7401486,11 L9,11 L10.8158073,0 L10.8158073,0" id="Path"></path>
          <path d="M17.8405176,3 L21.2898792,3 C22.3022975,3.01013131 23.0359303,3.35806952 23.4907779,4.0432357 C23.9456254,4.72840188 24.0957032,5.66424568 23.9412542,6.85076709 C23.8812716,7.39293703 23.7481929,7.92468619 23.5422609,8.44630404 C23.3448284,8.9679219 23.0704142,9.43830426 22.7185327,9.85774059 C22.2894267,10.3894898 21.8304508,10.7270072 21.3413622,10.8702929 C20.8522736,11.0135786 20.3459431,11.0850767 19.8226135,11.0850767 L18.2781232,11.0850767 L17.7890346,14 L16,14 L17.8405176,3 L17.8405176,3 M19.3463956,4.74895397 L18.5741505,9.35146444 C18.6256335,9.36159575 18.6771165,9.36680614 18.7285995,9.36680614 C18.7885821,9.36680614 18.8488075,9.36680614 18.90879,9.36680614 C19.7325182,9.37693745 20.4190393,9.27996632 20.9681104,9.07531381 C21.5171816,8.86052999 21.886305,8.113997 22.0749951,6.83542538 C22.2294441,5.76150628 22.0749951,5.14262783 21.611648,4.9790795 C21.1568005,4.81553117 20.586359,4.73882266 19.899838,4.74895397 C19.7968719,4.75908529 19.6982771,4.76429568 19.6038107,4.76429568 C19.5180866,4.76429568 19.4279913,4.76429568 19.3335249,4.76429568 L19.3463956,4.74895397" id="Shape"></path>
        </g>
      </g>
    </g>
  </g>
</svg>
