<?xml version="1.0" encoding="UTF-8"?>
<svg xmlns="http://www.w3.org/2000/svg" xmlns:xlink="http://www.w3.org/1999/xlink" width="61px" height="14px" viewBox="0 0 61 14" version="1.1">
  <title>Group 2</title>
  <desc>Created with Sketch.</desc>
  <g id="Website" stroke="none" stroke-width="1" fill="none" fill-rule="evenodd">
    <g id="Artboard" transform="translate(-275.000000, -271.000000)">
      <g id="WordPress_logo" transform="translate(275.000000, 271.000000)">
        <g id="Group-2" fill="#FFFFFF" fill-opacity="0.57" fill-rule="nonzero">
          <path d="M35.2955318,5 L32.9340103,5 L32.9340103,5.28512543 C33.6726731,5.28512543 33.7914324,5.46530447 33.7914324,6.53145863 L33.7914324,8.45349484 C33.7914324,9.51952256 33.6727842,9.71474813 32.9340103,9.71474813 C32.3668763,9.62472183 31.984158,9.27928384 31.4564623,8.61862735 L30.8496678,7.86794457 C31.6675406,7.70255917 32.1028062,7.11713534 32.1028062,6.45635242 C32.1028062,5.63068986 31.4829027,5 30.321861,5 L28,5 L28,5.28512543 C28.7386629,5.28512543 28.8574222,5.46530447 28.8574222,6.53145863 L28.8574222,8.45349484 C28.8574222,9.51952256 28.7386629,9.71474813 28,9.71474813 L28,10 L30.6252583,10 L30.6252583,9.71474813 C29.8865954,9.71474813 29.7678361,9.51952256 29.7678361,8.45349484 L29.7678361,7.91308416 L29.9920235,7.91308416 L31.4564623,10 L35.2955318,10 C37.1820161,10 38,8.85899251 38,7.49241351 C38,6.1260874 37.1821272,5 35.2955318,5 Z M29.7679472,7.44727392 L29.7679472,5.45051082 L30.308752,5.45051082 C30.9023263,5.45051082 31.1662852,5.91594174 31.1662852,6.45647886 C31.1662852,6.98209589 30.9023263,7.44740036 30.308752,7.44740036 L29.7679472,7.44740036 L29.7679472,7.44727392 Z M35.3351923,9.53456909 L35.2427622,9.53456909 C34.7679472,9.53456909 34.7019575,9.39952964 34.7019575,8.70878009 L34.7019575,5.45051082 C34.7019575,5.45051082 35.2824227,5.45051082 35.3351923,5.45051082 C36.7072011,5.45051082 36.9577177,6.59151831 36.9577177,7.47749343 C36.9577177,8.39330872 36.70709,9.53456909 35.3351923,9.53456909 Z" id="Shape"></path>
          <path d="M20.2096648,8.00011228 L21.1534445,5.27996407 C21.4271107,4.49334756 21.3039839,4.26677146 20.4286208,4.26677146 L20.4286208,4 L23,4 L23,4.26677146 C22.1383432,4.26677146 21.9332088,4.46673778 21.5912412,5.44007186 L20.0318279,10 L19.8541061,10 L18.4588234,5.82664346 L17.0364735,10 L16.8586365,10 L15.3404574,5.44007186 C15.0121962,4.46673778 14.7933554,4.26677146 14,4.26677146 L14,4 L17.0364735,4 L17.0364735,4.26677146 C16.2294117,4.26677146 16.0104557,4.45337675 16.2978282,5.27996407 L17.2141952,8.00011228 L18.5956565,4 L18.8556163,4 L20.2096648,8.00011228 Z" id="Path"></path>
          <path d="M25.5,10 C24.1250526,10 23,8.87200056 23,7.49302184 C23,6.128234 24.1251579,5 25.5,5 C26.8750526,5 28,6.128234 28,7.49302184 C28,8.87200056 26.8750526,10 25.5,10 Z M25.5,5.43205967 C24.3501053,5.43205967 23.95,6.58785448 23.95,7.49313912 C23.95,8.41249736 24.3501053,9.55445312 25.5,9.55445312 C26.6626316,9.55445312 27.0626316,8.41249736 27.0626316,7.49313912 C27.0626316,6.58785448 26.6626316,5.43205967 25.5,5.43205967 Z" id="Shape"></path>
          <path d="M41.1197944,9.72287587 L41.1197944,10 L38,10 L38,9.72287587 C38.9128559,9.72287587 39.0763371,9.48740787 39.0763371,8.10155384 L39.0763371,5.88467747 C39.0763371,4.49882344 38.9128559,4.27724082 38,4.27724082 L38,4 L40.8200216,4 C42.2232063,4 43,4.73440812 43,5.71840299 C43,6.67451041 42.2232063,7.42268723 40.8200216,7.42268723 L40.0434573,7.42268723 L40.0434573,8.10143716 C40.0434573,9.48740787 40.2069385,9.72287587 41.1197944,9.72287587 Z M40.8200216,4.49882344 L40.0434573,4.49882344 L40.0434573,6.90997841 L40.8200216,6.90997841 C41.5830484,6.90997841 41.9372003,6.36961553 41.9372003,5.71840299 C41.9372003,5.05330507 41.5830484,4.49882344 40.8200216,4.49882344 Z" id="Shape"></path>
          <path d="M52.8009847,8.58866073 L52.7346835,8.85886607 C52.6154752,9.35439005 52.4694786,9.53456909 51.5284254,9.53456909 L51.3428043,9.53456909 C50.6536735,9.53456909 50.5343536,9.35439005 50.5343536,8.28836233 L50.5343536,7.59773923 C51.5682731,7.59773923 51.6478569,7.70268562 51.6478569,8.4835879 L51.8996676,8.4835879 L51.8996676,6.24620676 L51.6478569,6.24620676 C51.6478569,7.0269826 51.5682731,7.13205543 50.5343536,7.13205543 L50.5343536,5.45051082 L51.2632206,5.45051082 C52.204497,5.45051082 52.3501587,5.63068986 52.4694786,6.12621384 L52.5358915,6.41133927 L52.7478544,6.41133927 L52.6552113,5 L48.7581729,5 L48.7581729,5.28512543 C49.5003225,5.28512543 49.6197539,5.46530447 49.6197539,6.53145863 L49.6197539,8.45349484 C49.6197539,9.42873761 49.5184046,9.67441331 48.9331903,9.70943759 C48.3769967,9.61321566 47.9951508,9.26954785 47.4726659,8.61862735 L46.8628956,7.86794457 C47.6847405,7.70255917 48.1221723,7.11713534 48.1221723,6.45635242 C48.1221723,5.63068986 47.4992311,5 46.3328207,5 L44,5 L44,5.28512543 C44.7421495,5.28512543 44.8614694,5.46530447 44.8614694,6.53145863 L44.8614694,8.45349484 C44.8614694,9.51952256 44.7422611,9.71474813 44,9.71474813 L44,10 L46.6377617,10 L46.6377617,9.71474813 C45.8956122,9.71474813 45.7761807,9.51952256 45.7761807,8.45349484 L45.7761807,7.91308416 L46.0015379,7.91308416 L47.4727776,10 L52.9204162,10 L53,8.58878717 L52.8009847,8.58878717 L52.8009847,8.58866073 Z M45.7760691,7.44727392 L45.7760691,5.45051082 L46.3194265,5.45051082 C46.9159143,5.45051082 47.1811192,5.91594174 47.1811192,6.45647886 C47.1811192,6.98209589 46.9159143,7.44740036 46.3194265,7.44740036 L45.7760691,7.44740036 L45.7760691,7.44727392 Z" id="Shape"></path>
          <path d="M55.5182571,10 C55.032423,10 54.6072415,9.707614 54.4250793,9.52641208 C54.3643244,9.59619535 54.2550885,9.805076 54.2308479,10 L54,10 L54,8.07820417 L54.2429171,8.07820417 C54.3401862,8.99734941 54.8987419,9.54048602 55.615424,9.54048602 C56.0040912,9.54048602 56.3199345,9.28985269 56.3199345,8.87209139 C56.3199345,8.51003941 56.0406055,8.23137549 55.5426,7.96678551 L54.8502608,7.59077688 C54.3643244,7.32595234 54,6.86632107 54,6.25363577 C54,5.58512385 54.5465889,5.01419122 55.2996829,5.01419122 C55.7005216,5.01419122 56.0405032,5.1813192 56.2471106,5.3762432 C56.3077631,5.32053387 56.368518,5.16724526 56.4050322,5 L56.6357778,5 L56.6357778,6.64360105 L56.3806894,6.64360105 C56.2955917,5.9889285 55.9798507,5.44579189 55.3361972,5.44579189 C54.9961133,5.44579189 54.6801677,5.6686292 54.6801677,6.01695909 C54.6801677,6.37901107 54.9352562,6.57393507 55.5183594,6.88039501 L56.1862535,7.25640364 C56.7693567,7.57670295 57,8.0922781 57,8.51003941 C57,9.38731469 56.3320037,10 55.5182571,10 Z" id="Path"></path>
          <path d="M59.5183594,10 C59.032423,10 58.6072415,9.707614 58.4251815,9.52641208 C58.3644267,9.59619535 58.2551908,9.805076 58.2309502,10 L58.0001023,10 L58.0001023,8.07820417 L58.2430193,8.07820417 C58.3401862,8.99734941 58.8988442,9.54048602 59.6155262,9.54048602 C60.0041935,9.54048602 60.3200368,9.28985269 60.3200368,8.87209139 C60.3200368,8.51003941 60.0407078,8.23137549 59.5426,7.96678551 L58.8502608,7.59077688 C58.3644267,7.32595234 58,6.86632107 58,6.25363577 C58,5.58512385 58.5465889,5.01419122 59.2996829,5.01419122 C59.7005216,5.01419122 60.0405032,5.1813192 60.2471106,5.3762432 C60.3077631,5.32053387 60.368518,5.16724526 60.4048277,5 L60.6356756,5 L60.6356756,6.64360105 L60.3806894,6.64360105 C60.2955917,5.9889285 59.9798507,5.44579189 59.3361972,5.44579189 C58.9961133,5.44579189 58.6801677,5.6686292 58.6801677,6.01695909 C58.6801677,6.37901107 58.9352562,6.57393507 59.5183594,6.88039501 L60.1862535,7.25640364 C60.7693567,7.57670295 61,8.0922781 61,8.51003941 C61,9.38731469 60.3320037,10 59.5183594,10 Z" id="Path"></path>
          <path d="M0.991154472,6.97268293 C0.991154472,9.34039024 2.36713821,11.3865528 4.36242276,12.3561951 L1.50904065,4.53827642 C1.17713821,5.28221138 0.991154472,6.10547967 0.991154472,6.97268293 Z" id="Path"></path>
          <path d="M11.0110569,6.67082927 C11.0110569,5.93156098 10.7455122,5.4195935 10.5177561,5.02110569 C10.2145366,4.52837398 9.9303252,4.11110569 9.9303252,3.61837398 C9.9303252,3.06850407 10.3473659,2.55665041 10.9347967,2.55665041 C10.9613171,2.55665041 10.9864715,2.55995122 11.0123089,2.56143089 C9.9480813,1.58643902 8.53021138,0.991154472 6.97291057,0.991154472 C4.88315447,0.991154472 3.04460163,2.06334959 1.97502439,3.68734959 C2.11536585,3.69156098 2.24762602,3.69452033 2.35996748,3.69452033 C2.98564228,3.69452033 3.95414634,3.61860163 3.95414634,3.61860163 C4.27660163,3.5995935 4.31461789,4.07320325 3.99250407,4.11133333 C3.99250407,4.11133333 3.66845528,4.14946341 3.30786992,4.16835772 L5.48617886,10.647626 L6.79523577,6.7215935 L5.86326829,4.16813008 C5.54115447,4.14923577 5.236,4.11110569 5.236,4.11110569 C4.91365854,4.09221138 4.95144715,3.59936585 5.27378862,3.61837398 C5.27378862,3.61837398 6.26164228,3.69429268 6.84941463,3.69429268 C7.47497561,3.69429268 8.4435935,3.61837398 8.4435935,3.61837398 C8.76627642,3.59936585 8.80417886,4.07297561 8.48195122,4.11110569 C8.48195122,4.11110569 8.15721951,4.14923577 7.79731707,4.16813008 L9.95900813,10.5983415 L10.5556585,8.60453659 C10.8142602,7.77717073 11.0110569,7.18291057 11.0110569,6.67082927 Z" id="Path"></path>
          <path d="M7.07785366,7.4959187 L5.28312195,12.7110894 C5.81899187,12.8686179 6.38570732,12.9547805 6.97291057,12.9547805 C7.66949593,12.9547805 8.3375122,12.8343577 8.95931707,12.6157073 C8.94326829,12.5900976 8.92869919,12.5628943 8.91674797,12.5333008 L7.07785366,7.4959187 Z" id="Path"></path>
          <path d="M12.2216585,4.10279675 C12.2473821,4.29333333 12.2619512,4.49786992 12.2619512,4.71788618 C12.2619512,5.32489431 12.1485854,6.00725203 11.807122,6.86045528 L9.97995122,12.1432358 C11.7582927,11.1062114 12.9544391,9.17956098 12.9544391,6.97279675 C12.9545528,5.93281301 12.6888943,4.95486179 12.2216585,4.10279675 Z" id="Path"></path>
          <path d="M6.97291057,5.55111512e-13 C3.12814634,5.55111512e-13 -5.68434189e-14,3.1279187 -5.68434189e-14,6.97268293 C-5.68434189e-14,10.8179024 3.12814634,13.9457073 6.97291057,13.9457073 C10.817561,13.9457073 13.9461626,10.8179024 13.9461626,6.97268293 C13.9461626,3.1279187 10.817561,5.55111512e-13 6.97291057,5.55111512e-13 Z M6.97291057,13.6260976 C3.30445528,13.6260976 0.319723577,10.6413659 0.319723577,6.97268293 C0.319723577,3.30422764 3.30434146,0.319723577 6.97291057,0.319723577 C10.641252,0.319723577 13.6257561,3.30422764 13.6257561,6.97268293 C13.6257561,10.6413659 10.641252,13.6260976 6.97291057,13.6260976 Z" id="Shape"></path>
        </g>
        <g id="Group"></g>
      </g>
    </g>
  </g>
</svg>
